<?xml version="1.0" encoding="UTF-8" standalone="no"?>
<svg
   xmlns:dc="http://purl.org/dc/elements/1.1/"
   xmlns:cc="http://creativecommons.org/ns#"
   xmlns:rdf="http://www.w3.org/1999/02/22-rdf-syntax-ns#"
   xmlns:svg="http://www.w3.org/2000/svg"
   xmlns="http://www.w3.org/2000/svg"
   xmlns:sodipodi="http://sodipodi.sourceforge.net/DTD/sodipodi-0.dtd"
   xmlns:inkscape="http://www.inkscape.org/namespaces/inkscape"
   version="1.2"
   width="810"
   height="805"
   viewBox="0 0 810 805"
   stroke-linecap="round"
   stroke-linejoin="round"
   id="svg2026"
   sodipodi:docname="Florida_2024_US_Presidential_Election_By_Congressional_District.svg"
   inkscape:version="0.92.3 (2405546, 2018-03-11)">
  <metadata
     id="metadata1068">
    <rdf:RDF>
      <cc:Work
         rdf:about="">
        <dc:format>image/svg+xml</dc:format>
        <dc:type
           rdf:resource="http://purl.org/dc/dcmitype/StillImage" />
      </cc:Work>
    </rdf:RDF>
  </metadata>
  <defs
     id="defs2030" />
  <sodipodi:namedview
     id="namedview2028"
     pagecolor="#ffffff"
     bordercolor="#999999"
     borderopacity="1"
     inkscape:pageshadow="0"
     inkscape:pageopacity="0"
     inkscape:pagecheckerboard="0"
     showgrid="false"
     inkscape:zoom="1.1682331"
     inkscape:cx="517.13581"
     inkscape:cy="418.15285"
     inkscape:window-width="1857"
     inkscape:window-height="1953"
     inkscape:window-x="1893"
     inkscape:window-y="0"
     inkscape:window-maximized="0"
     inkscape:current-layer="svg2026"
     inkscape:showpageshadow="2"
     inkscape:deskcolor="#d1d1d1" />
  <path
     id="FL-1"
     d="m 12.007151,93.117816 0.071,-0.44026 1.7423,-0.3957 5.3529,-1.16878 0.2752,-1.31119 -1.6059,0.35053 -1.009,-0.15001 -0.9646,0.37749 -1.5046,-0.27809 -0.5476,-0.20599 -0.1917,-0.41306 0.039,-1.02337 0.6977,-1.12268 1.0705,-0.23361 1.934,0.0173 0.7244,-0.0894 1.6192,-1.63484 -0.032,-1.80489 0.35,-0.97903 0.7326,-0.53906 0.5004,-0.70069 -0.1128,-1.30212 0.4699,-0.51195 1.2102,-1.50001 1.9235,0.0835 1.4549,-1.01511 0.8814,-0.26065 0.9221,-0.512 0.9625,-0.76351 0.3604,-1.04197 -0.3937,-0.76312 -1.0222,-0.46674 -0.6945,-0.0961 -1.7467,-0.37676 -1.0651,-0.60169 -1.4078,-1.67879 -0.5748,-1.23918 0.3236,-0.40417 0.4902,-0.63766 -0.1534,-1.05059 -0.4443,-0.44896 -0.1154,-0.0875 -0.086,-0.2692 -0.2117,-0.28731 -0.3783,-0.057 -0.1155,-0.0875 -0.3279,-0.36797 -0.019,-0.32391 -0.1061,-0.14352 -0.1267,-0.0186 0.4038,-0.90731 0.2289,-0.22433 0.068,-0.0584 0.5204,-0.82634 0.6704,-2.15528 1.0131,-1.07787 0.9018,-0.38646 0.023,-0.96099 0.6388,-0.35949 0.068,-0.0585 0.5087,-1.1495 0.3245,-2.39748 0.8081,-0.20661 0.2998,-0.66459 0.177,-0.2963 0.031,-0.18777 -0.034,-0.13388 -0.062,-0.008 -0.034,-0.13388 0.09,-0.11629 0.038,-0.25176 0.01,-0.44896 0.1268,0.0186 0.1282,-0.36806 -0.024,-0.26063 0.062,-1.98455 -0.1431,-1.11353 -0.7066,-0.42211 -0.1276,-2.01148 -3.0589,-1.84905 -1.4482,-1.4274 -0.7652,0.34152 -1.0121,-0.52964 -0.097,-0.59232 -1.1756,-1.51718 -1.7164,-0.56491 -0.068,0.0584 -0.062,-0.008 -0.058,-0.0661 -0.2525,-0.0339 -0.058,-0.0661 0.031,-0.18777 -0.058,-0.0661 -0.2321,-0.16147 0.067,-0.0585 0.01,-0.062 -0.1155,-0.0875 -0.1061,-0.14379 -0.1267,-0.0186 0.021,-0.12604 -0.086,-0.26917 -0.1155,-0.0876 0.021,-0.1263 -0.1267,-0.0185 0.01,-0.062 -0.068,0.0585 -0.2525,-0.0339 -0.034,-0.13387 -0.062,-0.008 -0.068,0.0585 -0.1061,-0.14388 -0.034,-0.13388 -0.1265,-0.0185 -0.106,-0.14379 -0.2525,-0.0339 -0.1061,-0.14378 -0.1267,-0.0186 -0.029,-0.19644 -0.062,-0.008 -0.368,-0.1209 0.09,-0.11628 -0.058,-0.0661 -0.3158,-0.0403 0.021,-0.1263 0.1001,-0.24298 -0.058,-0.0661 -0.1154,-0.0876 0.021,-0.12629 -0.1155,-0.0875 -0.01,-1.15841 -0.9559,-1.67898 0.1721,-0.68287 -0.6153,-0.98765 -2.0186,-1.89405 -0.5319,-1.104361 -2.3215005,-1.615944 -0.1634,-0.98786 -1.2442,-0.691053 -0.744,-1.391775 -0.1267,-0.01855 -0.058,-0.06609 -0.01,0.06198 -0.1061,-0.143523 0.01,-0.06198 -0.058,-0.06609 0.1688,-1.005021 -0.096,-0.205505 -0.086,-0.269276 -0.062,-0.0083 -0.058,-0.06609 -0.1155,-0.08756 -0.034,-0.133876 -0.062,-0.0084 -0.01,0.06197 0.021,-0.126049 -0.062,-0.0083 0.01,-0.06198 -0.062,-0.0084 0.01,-0.06198 -0.1156,-0.08756 0.01,-0.06197 -0.1267,-0.01845 -0.034,-0.134139 0.7887,-1.688383 0.9624,-0.763545 -0.1737,-0.924989 1.1976,-1.823253 0.3101,-0.727626 1.0157,-2.299208 0.6368,-0.745625 0.6120005,-1.391987 0.1653,-0.619544 0.1965,-0.8082005 -0.2896,-1.0057307 -0.1176,-0.466702 -0.1964005,-1.185434 -0.151,-0.664568 -0.056,-0.45794 0.021,-0.126302 1.4092005,0.06757 5.3824,0.249912 1.9766,0.15359 1.5449,0.02773 1.7343,0.05511 3.5116,0.24221 2.502,0.09699 1.1567,0.03269 0.7684,0.03873 5.4355,0.321007 1.8075,-3.91e-4 0.4319,0.124802 2.2494,0.06183 0.8935,0.06272 1.5449,0.02774 1.3457,0.06105 1.6512,0.169475 0.3263,-0.02483 0.5158,0.0047 1.3153,0.250224 1.0297,0.02099 2.4489,0.02614 4.3828,0.04372 0.1888,0.02736 2.2595,-6.84e-4 1.6512,0.168389 0.6515,-0.03573 2.3025,0.132391 2.6913,0.124639 1.6615,0.104161 1.4093,0.06757 1.5347,0.09097 2.8174,0.14416 1.3353,0.126267 2.176,0.11701 3.7112,0.2055527 4.3524,0.232773 0.3159,0.0403 3.7844,0.151534 1.8509,0.131454 2.4388,0.08921 2.1126,0.110517 1.2718,0.1213025 3.1964,0.194225 1.345699,0.06105 0.3266,-0.02482 0.9571,0.06926 1.3891,0.192641 1.913,0.147528 1.1567,0.03277 2.5019,0.097 2.6913,0.124637 3.08,0.116535 0.7048,0.03485 1.7974,0.06206 0.9038,-5.76e-4 4.7109,0.410697 2.1127,0.110516 2.5751,0.04406 2.1761,0.11702 4.2465,0.08851 0.904,-5.64e-4 4.2262,0.214346 1.7343,0.05511 1.4712,0.0853 0.3262,-0.02483 1.4092,0.06756 0.8937,0.06273 2.1126,0.110505 1.4716,0.08532 1.9232,0.08376 2.964,0.03497 2.2393,0.123518 0.5773,0.0244 2.1127,0.110529 0.5773,0.02439 0.5154,0.0047 3.9004,0.233321 -0.6706,4.148721 -0.2826,3.753699 1.14,6.142019 0.7138,1.580193 -0.1255,1.589771 -1.0025,4.61605 0.1975,3.17885 -2.4411,-0.47542 -0.1033,1.84993 -1.3084,0.90736 0.2241,0.61058 0.9264,0.26068 -0.1384,0.49472 1.0827,0.0924 -0.1248,1.20379 -0.4443,-0.44894 -1.2903,0.39545 0.2187,1.44574 -1.671,-0.0472 0.8555,0.70024 0.363,0.95174 -0.085,1.33809 0.381,0.44014 -0.8056,0.59297 0.7922,0.691 1.7367,0.43878 -0.118,1.91234 0.8937,0.0627 -0.033,1.40991 0.7463,1.77778 -0.4902,3.85279 0.5312,2.71188 0.058,4.44507 2.0501,0.0973 -0.2516,3.56516 -2.0501,-0.0973 -0.5432,2.17331 0.4418,0.0628 -0.2433,3.11621 -1.2197,-0.0416 -0.2042,0.87119 0.5156,0.005 -0.2042,0.87127 -0.5574,-0.14789 -0.2585,0.79934 -0.5773,-0.0244 -0.1894,1.96652 -2.2075,1.67988 -3.2483,6.93349 -0.3878,5.60364 -8.6477,-3.22136 -5.2326,-1.5792 -5.2305,-1.19271 -5.0186,-0.90478 -3.345,-0.47501 -2.8069,-0.2092 -3.7517,0.0459 -1.3907,-0.58318 -10.9611,-1.6853 -3.3957,-0.15963 -8.586399,0.002 -10.3264,0.78407 -4.2115,0.4951 -8.2538,1.14278 -10.1325,1.58338 -11.4229,1.97887 -5.3677,0.45961 -4.686,0.23478 -2.1965,0.01 -1.7695,-0.63675 -1.2994,-1.14922 -1.2375,0.46731 -0.2171,0.54774 -12.135,2.39219 -2.7622,0.31503 z"
     style="fill:#cc2f4a;fill-opacity:1;stroke:#fffdfd;stroke-width:1;stroke-miterlimit:4;stroke-dasharray:none;stroke-opacity:1" />
  <path
     id="FL-3"
     d="m 443.03705,180.49661 1.2047,-0.66505 2.6226,0.95133 1.0705,-0.2337 -0.1537,-1.05055 1.501,-2.10169 0.046,-1.47251 0.4776,-0.96084 0.3062,-1.4998 -0.247,-0.87115 0.4499,-0.38615 -0.2673,-0.74515 1.0495,-2.10142 0.5352,-0.11596 1.3544,-1.99399 0.1562,-5.37912 -3.5623,0.073 0.194,-8.01026 -1.9338,-0.0173 0.079,-0.88908 0.366,-12.67986 0.5797,-15.60749 1.6414,0.2286 0.9443,-0.25164 5.4759,0.0706 0.055,-3.14302 0.148,-0.9433 0.2326,-5.04682 0.8428,-3.2241 0.1,-2.62219 0.6186,-0.23345 1.1156,0.28698 0.022,-0.96109 2.7747,0.008 0.022,-0.96109 0.9449,-1.85914 -0.1004,-0.97893 0.5303,-0.88937 1.5709,-0.93444 0.3537,-0.59285 -0.3753,-1.275 0.6673,-0.93395 -0.4938,-1.741934 0.4375,-0.70948 1.1156,0.28695 0.8687,-0.58383 -0.3604,-0.56572 0.2215,-2.15503 1.528,-1.06911 0.7244,-0.0894 -0.859,-3.0799 -1.6129,-0.80761 -1.2172,0.34164 -0.3731,-0.88902 -0.5862,0.4312 -0.5525,-0.97861 0.3664,-0.26962 -0.3429,-1.07743 0.4852,-1.40994 -0.5073,-0.45777 0.5228,-0.44034 -0.86,-1.47241 -1.8325,-0.64625 0.4496,-3.98717 -0.5826,-0.79028 0.6919,-0.28732 -0.4384,-1.28399 -0.2314,-1.76911 -1.428,-1.55307 0.5107,-0.76357 -0.5751,-1.23923 -0.093,-1.42782 0.6795,-0.61072 -0.3123,-1.26606 -0.7563,-1.71485 0.077,-0.50342 -0.5873,-1.56227 -2.1033,-0.16697 -1.6961,-0.69072 1.8508,0.13145 4.5216,0.38388 2.2292,0.18685 5.6879,0.35806 1.019,0.0858 3.3655,0.3475 1.2822,0.0573 0.1887,0.0274 3.3223,0.21602 3.1228,0.2504 3.1964,0.19422 0.1885,0.0273 3.3222,0.216 3.4484,0.23417 1.9765,0.15359 0.442,0.0628 5.1098,0.33869 14.4152,1.08362 4.4686,0.31246 1.8508,0.13145 1.9132,0.14753 2.4285,0.15276 1.4092,0.0676 4.09,0.25787 1.2098,0.10277 1.3352,0.12625 0.83,0.0589 2.1761,0.11703 1.6616,0.10416 6.0667,0.41002 1.6616,0.10417 2.2927,0.19253 5.8771,0.38508 5.741,0.42916 3.4484,0.23417 2.6178,0.18082 1.3988,0.13115 1.2719,0.12131 2.4285,0.15276 -0.9647,0.37766 -1.1394,1.05999 0.033,0.58338 -0.064,0.37727 -0.5411,0.9519 0.2797,1.06849 0.6031,0.66444 0.016,1.09551 0.8172,1.33775 0.5905,0.34087 1.6422,2.22657 -0.015,1.28402 -0.5736,0.75458 -0.157,1.39221 0.3582,0.1797 -0.024,1.34683 -0.1337,0.43117 -0.5565,1.85018 0.1072,0.52969 0.1208,0.85312 0.158,0.2143 0.1156,0.0875 -0.1586,0.55631 0.3484,0.24197 -0.1061,0.3063 1.4902,3.16947 0.5659,-0.30556 0.5114,1.23023 0.6992,0.87104 0.3383,0.30541 0.8201,0.12047 2.3284,-0.82689 0.5906,0.34086 0.3562,-0.20684 0.2598,-0.41303 1.1056,0.34896 0.9646,-0.37757 0.462,-0.0633 1.0248,0.85271 1.2196,0.0416 0.2952,0.17059 0.7652,-0.34151 0.6663,0.67338 0.4065,-0.52121 0.9973,-0.17981 0.3359,-0.0813 -0.075,8.477224 v 5.9807 l -0.1278,6.79792 -0.095,10.59638 -0.097,10.21032 0.065,2.00251 -0.1459,7.30975 -0.052,23.14155 -0.371,3.48403 -0.6514,0.0358 0.5501,0.5925 -0.599,5.31634 -0.1504,2.93652 0.017,4.69654 -0.1689,12.25776 -0.07,7.64199 -0.8915,0.32346 -0.7699,-0.43105 0.027,1.03253 -1.108,-0.7359 -0.6793,0.61086 0.1714,0.53886 -1.0504,0.10793 -0.5523,-0.9785 -0.9645,0.37748 v 2.82866 l -0.5795,1.58957 -1.0437,1.26648 -2.9801,6.07137 -0.2141,11.73693 0.3675,1.72399 0.4442,0.44885 7.935,0.0336 -0.079,1.27499 1.3555,1.2e-4 0.4362,0.89807 -0.024,1.34688 -0.9038,4.7e-4 0.01,2.76586 -0.3358,0.081 -0.133,2.42465 -0.9017,0.38656 -0.4851,1.40995 -6.1375,0.0285 -0.033,1.40986 -3.4993,0.0818 -1.722,0.26992 -0.055,4.75047 2.4686,5.10889 1.0756,4.1395 2.8169,5.35132 -9.6367,0.11039 -3.8679,-0.0346 -6.5894,0.0288 -0.5141,-1.61627 -1.4436,-0.65539 -1.2466,-1.07741 -0.399,0.0722 -1.686,-0.75382 -0.5321,-1.10428 -1.2071,0.27872 -0.047,-0.52104 -1.6206,-0.35881 -0.194,-0.79922 -0.6965,-0.48494 -1.7827,0.64701 -0.2142,-0.67349 -0.9795,-0.33062 -1.2714,-1.72378 -1.7716,-1.02311 -1.3049,-0.31403 -0.2344,-0.54789 -1.6083,-0.0349 0.065,0.39518 -2.273,1.2849 -0.9084,-0.77199 -0.4065,0.521 -1.0855,-0.47598 -0.4397,0.32343 -1.2097,-0.10273 -1.2554,0.97931 -0.6739,-0.2242 -1.4346,0.88951 -1.777,-0.18904 -0.8768,1.0331 -0.022,0.96116 -1.1743,0.47627 -1.9285,-0.8519 -2.3274,-0.78066 -2.4513,-0.4114 -0.1175,-0.46658 -1.3481,-0.44817 -2.3835,0.36869 -0.8057,0.59288 -1.0538,1.32917 -0.5157,-0.005 -2.3867,1.59005 -0.435,1.0958 -0.5095,-0.84395 0.5204,-0.82631 0.182,-1.5174 0.5305,-0.889 -1.061,-3.43011 -1.3681,-0.32317 -3.0247,0.3421 -0.076,-0.33243 2.2752,-0.89865 0.1586,-0.55633 -1.7593,-0.69992 -1.659,0.27889 0.087,-1.72398 -0.5771,-0.0249 -0.3551,-1.40068 0.9015,-0.38649 1.5134,-1.77844 -0.6685,-1.05959 0.4184,-2.57702 -0.9154,-1.93035 -2.2122,0.90758 -0.7699,-0.43094 -1.8,-0.44773 -1.9316,0.36853 -3.2515,-0.65372 -1.6433,-0.61831 -2.4265,0.23415 -5.6804,-0.80531 -0.5868,2.03859 -1.0806,0.29662 -0.4557,1.22145 0.3077,0.4939 -2.1388,0.85387 -0.7598,-0.49356 -1.3061,1.29338 -0.3282,-0.36819 -10e-4,-1.9935 -0.8485,0.4582 -0.3022,-1.32906 0.2838,-1.37432 -0.1781,-1.69709 -0.6358,-0.86203 -1.2151,-2.87321 -0.032,-1.80492 0.6442,-1.19462 -0.1612,-0.60148 0.8139,-1.04202 -0.2471,-0.87119 -1.1959,-1.39154 -1.9562,-0.27989 -0.3935,-0.76351 -0.5455,0.17952 -1.2364,-1.14024 -1.0728,-0.15391 -1.2441,-0.69115 -1.2375,0.4674 -0.8758,-0.57445 -0.5943,-2.72073 0.9343,-0.18891 0.3709,-1.1049 -0.3605,-0.56582 -1.2927,0.009 0.6489,-0.42218 0.3394,-1.30212 -1.1914,-0.61875 -1.1725,-2.73857 -0.9471,-0.13046 -0.093,-1.42785 0.157,-1.39221 -0.8959,-0.44829 0.1358,-0.81668 -0.7992,-1.84971 -1.1464,-0.0978 -0.1307,-0.79022 -1.055,-0.66438 -1.8708,-0.008 -0.6535,-0.35012 -0.8384,0.39555 -2.4942,-0.54618 -0.057,-0.84384 -1.1047,-1.95724 -0.08,-1.10455 -1.5926,-0.93343 -0.8611,0.13499 -0.8905,-1.28408 -1.0955,-0.41282 -0.628,-1.31093 -1.4817,-0.0202 -0.9062,-0.38519 -0.522,-1.16729 -1.7164,-0.56509 -0.077,-0.71816 0.639,-0.35946 -0.7689,-2.03818 0.331,-0.85318 -0.231,-1.76902 -0.4037,-0.7003 0.029,-2.18218 0.6323,-1.51791 0.2965,-1.43675 -0.1828,-2.46942 -0.443,-2.05635 -0.8397,-1.59832 z m 38.3087,69.09934 0.9064,0.38511 -0.4397,0.32342 z m -3.0044,0.21625 -0.9241,0.12589 -0.6964,-0.48493 1.6588,-0.27892 z m 3.8844,-2.47058 -0.8328,-0.43955 0.1791,-0.74607 0.959,0.45753 z m -6.2426,-1.72249 -0.092,1.40132 -0.4822,0.18864 -0.3248,-1.58938 z"
     style="fill:#cc2f4a;fill-opacity:1;stroke:#fffdfd;stroke-width:1;stroke-miterlimit:4;stroke-dasharray:none;stroke-opacity:1" />
  <path
     id="FL-4"
     d="m 656.80205,91.506736 -2.1456,-0.30696 -1.6171,2.02085 -1.2047,0.66503 -0.9795,-0.3306 -1.1934,-1.00541 -3.5929,0.26135 -0.8002,-0.24271 -2.53,0.47646 -0.1872,0.35913 -1.9543,0.10848 0.4914,1.35587 -0.1163,1.46298 -0.8125,-0.56529 -3.8249,0.10005 -1.0078,0.24271 0.3653,1.33801 v 1.99354 l -0.8282,0.33251 0.2572,0.808274 -1.1031,0.0352 -0.3604,1.04197 -0.7956,0.52994 -3.0744,-0.95101 -1.003,1.01513 v 2.37979 l -1.7048,1.36559 0.3855,1.21229 2.3286,2.77417 0.6153,0.98761 0.3144,1.65233 -0.2175,0.54784 -3.0346,4.00585 -0.2517,1.18597 -0.9599,1.14978 -0.1257,3.58306 1.2028,2.5501 -0.2274,1.83232 0.122,2.84659 -0.9631,2.37107 -0.1329,2.42461 0.1681,1.76008 0.6078,1.43658 1.2364,1.14026 4.9263,3.07882 1.5317,1.31068 0.9458,1.74196 0.1703,2.14612 -1.0242,2.74818 0.2764,2.28976 0.6878,2.54112 1.5983,3.69932 0.2344,0.54788 -15.4462,0.50728 -9.0689,0.19102 -1.0331,1.20358 -4.0185,2.90168 -3.3178,0.55751 -1.962,0.55748 -1.4829,1.58978 -0.8657,2.96363 -0.8866,1.09579 -3.9411,0.0194 -3.2523,0.95287 -1.8188,1.67068 -0.5303,0.88912 -2.1964,0.01 0.371,-3.48405 0.052,-23.1415 0.1458,-7.30976 -0.064,-2.00251 0.097,-10.21033 0.095,-10.59637 0.1278,-6.79796 v -5.9807 l 0.076,-8.477174 0.2826,-0.15189 0.3137,-0.34094 0.062,0.008 0.7528,-0.66459 -0.087,-0.65544 0.047,-0.31459 0.1663,-0.61947 -0.5221,-1.16727 -0.3021,-1.32903 0.2825,-0.15191 -0.087,-0.65531 -0.034,-0.13387 0.5327,-0.50314 0.3865,-0.39526 -0.1228,-1.23918 -0.2344,-0.54798 1.0008,-1.40117 0.1421,-0.87993 0.2999,-0.66472 0.095,-0.17862 -0.056,-0.45797 0.7809,-1.23941 -0.1209,-0.85314 0.3472,-2.1371 -0.1408,-0.7271 0.021,-1.73319 -0.156,0.16987 0.2778,-2.53268 0.2497,-0.35023 -0.1072,-0.52968 0.5937,-0.88019 -0.1104,-0.91583 0.4596,-0.44937 -0.2119,-0.28733 0.092,-1.4013 -0.2446,-0.4849 -0.1815,-0.47575 -0.1056,-0.14376 -0.4307,-1.73296 -0.6636,-0.28619 -0.097,-0.20555 -0.2725,0.0899 -0.076,-0.3324 -0.2494,-1.25712 -0.232,-0.16147 0.1048,-0.3064 -0.444,-0.44893 -0.4364,-0.89795 -0.095,-0.20546 0.1422,-0.88005 -0.4994,-0.90706 -0.2225,-0.2235 -0.2964,-2.164 0.09,-0.95196 0.1977,-0.42197 -0.1784,-0.0913 0.4822,-0.18837 0.2274,-1.83228 0.5718,-1.14058 -0.047,-0.52093 -0.1815,-0.47578 -0.017,-0.7094 -0.6336,-0.47564 0.3433,-0.5299 -0.1057,-0.14376 0.417,-0.58379 -0.1127,-1.30212 0.3309,-0.85309 0.78,0.36842 0.4823,-0.18861 1.2023,-1.05102 0.2498,-0.35041 -0.3405,-0.69137 -0.3483,-0.24196 -0.6178,-1.37389 0.7326,-0.53895 0.3866,-0.39524 1.6534,0.55645 0.1981,-0.0327 0.3179,0.43078 0.4543,0.38574 0.1886,0.0273 0.5905,0.34087 0.1885,0.0273 0.1981,-0.0327 0.089,-0.11632 0.1466,-0.10782 0.1265,0.0185 0.156,-0.16987 0.1337,-0.43126 0.067,-0.0585 v -0.38545 l 0.064,-0.37705 0.1667,-0.23342 0.3134,-0.34115 0.1981,-0.0327 0.095,-0.1789 0.076,-0.50344 -0.1275,-0.40378 -0.1683,-0.15204 -0.029,-0.19619 0.2826,-0.15188 0.067,-0.0585 -0.029,-0.19619 -0.1581,-0.21403 0.031,-0.18775 0.1981,-0.0327 -0.3383,-0.30569 0.01,-0.0623 0.1667,-0.23341 1.3916,-1.02409 0.8003,0.24271 0.3432,-0.52992 0.363,0.95174 0.7498,0.55659 2.0401,0.15929 0.4802,-0.57476 -0.1104,-0.91583 0.062,0.009 1.2421,0.3052 0.1433,1.11354 0.6663,0.67336 0.3022,1.32905 1.1896,0.22914 0.2243,0.61063 1.5959,-0.28783 0.7598,0.49347 0.5558,-0.24256 0.024,0.26032 -0.1876,0.35929 0.3067,0.0991 0.198,-0.0327 0.2825,-0.15189 0.472,-0.12508 0.4418,0.0628 0.158,0.21404 0.062,0.008 0.3034,-0.27843 0.2086,-0.0988 0.5053,0.0676 0.2726,-0.0899 0.2625,-0.0287 0.2528,0.0339 0.3384,0.30562 0.1156,0.0875 0.4767,0.64629 0.1466,-0.10781 -0.1056,-0.14376 0.031,-0.18749 0.091,-0.11625 0.2185,-0.1608 0.1155,0.0876 0.029,0.19645 0.1479,0.27805 0.3078,0.494 0.2224,0.22349 0.2021,0.35035 0.024,0.26032 -0.2826,0.1519 -0.024,0.12613 0.2952,0.17058 0.095,0.20548 0.034,0.13414 -0.101,0.24266 0.034,0.13414 0.1784,0.0914 0.9545,-0.31445 0.09,-0.11631 -0.158,-0.2143 -0.034,-0.13414 0.1,-0.24302 0.1977,-0.42209 0.024,-0.12587 -0.086,-0.26929 0.2725,-0.0899 0.2429,0.0953 0.5054,0.0676 0.1056,0.14376 0.086,0.26932 0.3911,0.37692 0.8003,0.24272 0.3786,0.0568 0.3582,0.17997 0.1156,0.0876 -0.096,0.17853 -0.1561,0.16988 -0.024,0.12588 0.034,0.13388 0.1683,0.15204 0.3583,0.17997 0.5476,0.20652 0.034,0.13388 -0.1666,0.23341 -0.024,0.12612 1.3703,0.7093 1.2273,-0.40449 0.3482,0.24196 0.3066,0.0992 0.1349,-0.0365 0.5027,-0.3142 0.2626,-0.0287 0.1155,0.0876 0.1176,0.46671 0.1581,0.21402 0.1155,0.0876 1.568,0.28537 0.2986,-1.05073 -0.8285,0.33237 -0.4441,-0.44883 2.0553,-0.7369 0.027,1.03254 1.2543,0.62794 -0.2787,0.92488 0.6661,0.67348 1.0253,-0.75444 0.8657,0.63753 0.212,-0.93452 0.3878,-0.003 0.3303,0.75417 -0.2585,0.79926 0.83,0.0588 0.3936,0.76311 0.5658,-0.30536 -0.036,-0.96984 0.8711,-0.19776 0.08,1.10453 0.9219,-0.51209 0.8936,0.0627 0.9895,0.26926 0.1682,0.15205 0.432,0.12469 0.4564,0.77192 0.9621,-0.76355 0.3883,-0.003 0.9107,1.15808 0.5231,-0.44 0.1755,-1.45412 0.7582,0.10106 2.0704,-0.0277 2.1738,-0.27005 1.0166,1.30191 0.664,0.28623 0.4318,0.12467 2.113,0.10797 1.9508,1.11309 -0.3865,3.61018 -0.8321,4.76885 -0.5853,3.64635 -0.1564,3.77164 0.1706,2.14614 0.5763,3.23265 -0.7258,3.30497 0.9533,1.29295 1.8055,-0.38668 0.4861,2.19094 0.1402,2.33481 0.3271,1.97538 -0.042,1.85889 0.5491,2.19987 z"
     style="fill:#e27f90;fill-opacity:1;stroke:#fffdfd;stroke-width:1;stroke-miterlimit:4;stroke-dasharray:none;stroke-opacity:1" />
  <path
     id="FL-5"
     d="m 671.33265,161.53776 -1.4188,-0.008 0.5026,-0.31458 -0.559,-2.1371 -1.6238,0.86251 -0.2698,0.47626 -0.8302,-0.0592 -0.052,-1.67917 -2.1008,0.21625 -0.01,2.44254 -1.8663,0.76382 -1.7865,-1.73255 -0.033,-0.58347 -1.0955,-0.41285 -1.2408,1.68859 -1.3211,-3.01692 -0.3124,-1.26609 -7.047,0.86411 -3.108,0.45894 -3.1105,0.0729 -2.3183,0.76399 -4.4661,0.0733 -1.5985,-3.69931 -0.6877,-2.54121 -0.2764,-2.28968 1.0242,-2.74821 -0.1706,-2.14609 -0.9457,-1.742 -1.5316,-1.31064 -4.9265,-3.07885 -1.2364,-1.14034 -0.6078,-1.4366 -0.1681,-1.76009 0.1329,-2.42463 0.9629,-2.37101 -0.122,-2.84665 0.2275,-1.83227 -1.2029,-2.5501 0.126,-3.58304 0.9599,-1.1498 0.252,-1.18588 3.0346,-4.00595 0.2171,-0.54767 -0.3145,-1.65234 -0.6155,-0.98762 -2.3286,-2.77416 -0.3856,-1.21231 1.705,-1.36557 v -2.3798 l 1.003,-1.01514 3.0745,0.95105 0.7954,-0.52996 0.3605,-1.04197 1.1031,-0.0353 -0.2573,-0.808294 0.8284,-0.3324 v -1.99356 l -0.3653,-1.33798 1.0075,-0.24282 3.8249,-0.10005 0.8125,0.5654 0.1163,-1.46301 -0.4914,-1.35589 1.9544,-0.10821 0.1874,-0.35902 2.53,-0.47646 0.8003,0.24272 3.5928,-0.26146 1.1935,1.00552 0.9794,0.33049 1.2048,-0.66492 1.617,-2.02089 2.1456,0.30696 -0.042,0.70053 1.27,-0.26985 -0.597,2.10157 0.049,2.90053 0.5618,6.124244 1.0012,5.80073 2.6215,11.368 2.5652,12.51741 0.5763,3.23265 1.6743,7.63257 0.9774,3.54681 1.1319,2.99002 1.2061,1.32883 1.0924,5.23504 z"
     style="fill:#cc2f4a;fill-opacity:1;stroke:#fffdfd;stroke-width:1;stroke-miterlimit:4;stroke-dasharray:none;stroke-opacity:1" />
  <path
     id="FL-6"
     d="m 699.56005,235.50715 -0.084,0.88861 0.8828,1.73278 -0.4397,0.32351 0.9287,0.64653 -0.8283,0.33253 1.2533,2.23569 -1.5305,0.68292 -1.9893,-0.47426 0.077,0.71796 -1.6556,-0.94235 -0.4395,0.3234 -1.5145,-0.21741 -10e-4,1.6075 -1.2598,0.20694 1.1326,1.38254 -0.2279,0.99648 -1.3435,0.32382 -0.5723,-0.85287 -0.6515,0.0357 0.3821,2.43356 -2.0401,-0.1593 0.3013,2.93639 0.1153,5.28915 -0.055,3.14306 -3.5288,-1.33719 -3.2487,-0.27199 -1.0427,-0.33976 -2.2392,-0.12351 -1.8358,0.5752 -1.6038,0.73682 -2.3102,0.3148 -0.7198,0.86237 -0.5382,1.33822 -0.5881,0.0427 0.022,1.86787 -0.9994,3.39474 -2.3847,-1.6248 -1.2197,-0.0427 -0.7598,-0.49378 -0.3854,-1.21226 -1.2294,0.0171 -0.1799,1.13186 -1.8077,6.4e-4 -0.1074,6.67222 -1.2294,0.0167 -0.9061,-0.38519 -0.6774,0.99698 -0.1036,1.01403 0.532,1.10437 -0.1115,1.07728 -0.9372,-0.19397 0.1862,1.24817 -1.4298,1.66174 0.1176,0.4668 -0.8439,1.23044 -0.7751,0.40464 -0.5204,0.82632 -1.3082,0.90737 -1.0437,1.2665 -0.3087,1.11373 -1.2821,-0.0573 -1.5203,0.62013 -1.8708,-0.008 -1.2872,-0.82603 -1.5348,-0.0909 -1.4772,0.75465 -2.1334,0.0187 -1.1212,0.54814 -2.8581,0.10867 -1.7523,0.45841 0.033,0.58351 -1.838,0.18901 -0.034,1.40984 -5.7588,0.0825 -0.4466,-0.83494 -1.4092,-0.0677 -1.5304,0.68266 -0.9769,0.0531 0.026,-2.56834 -0.1554,-1.43674 -2.0501,-0.0974 1.68,-2.01189 -0.8814,0.26071 -0.2791,0.53911 -0.7067,-0.42229 -4.393,0.0192 -0.01,-0.77262 -0.7641,-1.26612 -1.3277,-0.57428 0.279,-0.53911 -3.3664,-2.34283 -0.8407,0.007 -1.4132,-0.84388 -2.0118,-0.7355 -1.1572,1.57186 -1.7063,-0.62781 -9.3639,0.0207 1e-4,-8.80939 -18.1501,0.0591 -2.8168,-5.35129 -1.0756,-4.13948 -2.4687,-5.10892 0.055,-4.75048 1.722,-0.26991 3.4993,-0.0817 0.034,-1.40988 6.1375,-0.0286 0.4851,-1.40996 0.9017,-0.38646 0.1329,-2.42465 0.3358,-0.0811 -0.01,-2.76588 0.9041,-4.6e-4 0.024,-1.34687 -0.4364,-0.89798 -1.3555,-1.2e-4 0.08,-1.27499 -7.935,-0.0336 -0.4442,-0.4489 -0.3675,-1.72409 0.214,-11.73689 2.9802,-6.07133 1.0437,-1.2665 0.5793,-1.5896 v -2.82864 l 0.9646,-0.37767 0.5522,0.9785 1.0502,-0.10792 -0.1711,-0.53888 0.6795,-0.61089 1.1078,0.7359 -0.027,-1.0325 0.7697,0.43113 0.8916,-0.32346 0.07,-7.64199 0.1689,-12.25776 -0.017,-4.69651 0.1505,-2.93656 0.5989,-5.31634 -0.5501,-0.5926 0.6515,-0.0358 2.1965,-0.01 0.5303,-0.88916 1.8188,-1.67067 3.2523,-0.95285 3.9412,-0.0191 0.8864,-1.0958 0.8655,-2.96362 1.4828,-1.58982 1.9621,-0.55745 3.3178,-0.55772 4.0185,-2.90169 1.0334,-1.20356 9.0687,-0.191 15.4464,-0.50727 -0.2344,-0.54791 4.4662,-0.0731 2.3181,-0.76407 3.1105,-0.073 3.1082,-0.45895 7.0469,-0.86412 0.3124,1.2661 1.3211,3.0169 1.2407,-1.68862 1.0955,0.41278 0.033,0.58348 1.7867,1.73256 1.8662,-0.76376 0.01,-2.44251 2.1007,-0.21633 0.052,1.67915 0.8302,0.0592 0.2693,-0.47628 1.6238,-0.86256 0.5592,2.13719 -0.5027,0.31458 1.4189,0.008 0.1681,1.76011 0.7251,3.51101 1.4034,4.50754 1.1949,2.99898 1.8523,5.72872 5.0614,13.45061 4.1776,9.72419 8.1908,20.06802 z"
     style="fill:#cc2f4a;fill-opacity:1;stroke:#fffdfd;stroke-width:1;stroke-miterlimit:4;stroke-dasharray:none;stroke-opacity:1" />
  <path
     id="FL-7"
     d="m 699.56005,235.50715 3.1415,6.94063 2.3177,4.44445 1.4956,2.3343 2.1901,2.43288 1.79,4.11239 1.5837,2.9899 9.766,16.30496 5.8715,10.02901 -14.4388,0.26453 -10.8336,0.32635 0.1822,7.67788 0.1762,13.72143 -11.139,0.21852 -3.2367,0.055 -17.6857,0.38216 -7.0718,0.21748 -0.074,-3.5471 -3.5724,0.13584 0.024,-0.12614 -10.3514,0.13775 -0.1885,-0.0274 0.063,-8.80047 1.9744,-0.23409 2.0745,-2.85622 0.7491,-3.04442 -0.016,-2.70301 0.1791,-0.74605 -0.5839,-2.78364 0.3086,-1.11367 1.0436,-1.26651 1.3083,-0.90735 0.5203,-0.82632 0.7751,-0.40463 0.844,-1.23046 -0.1177,-0.46668 1.4299,-1.66176 -0.1862,-1.24819 0.937,0.19425 0.1116,-1.07732 -0.5318,-1.10432 0.1052,-1.01393 0.6774,-0.99697 0.9064,0.38512 1.2293,-0.0173 0.1074,-6.6722 1.8075,-4.5e-4 0.1799,-1.13191 1.2292,-0.0166 0.3854,1.21231 0.7598,0.49377 1.2197,0.0427 2.3848,1.6248 0.9993,-3.39471 -0.022,-1.86789 0.5882,-0.0426 0.5381,-1.33828 0.7201,-0.86233 2.3101,-0.31503 1.6038,-0.73679 1.8358,-0.57522 2.2392,0.12361 1.0428,0.33975 3.2487,0.272 3.5287,1.33718 0.055,-3.14308 -0.1157,-5.28919 -0.3013,-2.93638 2.0402,0.15932 -0.3824,-2.43358 0.6515,-0.0356 0.5725,0.85293 1.3434,-0.32383 0.2278,-0.99648 -1.1326,-1.38262 1.2599,-0.20691 10e-4,-1.60753 1.5144,0.21742 0.4397,-0.32352 1.6555,0.94235 -0.078,-0.71807 1.9895,0.47448 1.5303,-0.68292 -1.2533,-2.23571 0.8281,-0.33245 -0.9284,-0.64659 0.4397,-0.32353 -0.8827,-1.7328 z"
     style="fill:#e27f90;stroke:#fffdfd;stroke-width:1;stroke-miterlimit:4;stroke-dasharray:none;stroke-opacity:1;fill-opacity:1" />
  <path
     id="FL-8"
     d="m 727.71605,285.09576 2.4943,4.14806 6.6874,9.37323 0.434,0.51167 2.8652,4.65078 4.6066,5.86266 0.7835,2.7477 0.6743,3.82527 0.7056,2.02916 1.9693,4.20206 1.2434,2.29851 -0.4455,1.15847 -1.0907,0.35971 -2.6821,1.41953 -1.536,1.51809 -1.145,1.89517 -0.8878,2.70328 -0.5329,2.11061 -0.4412,3.53828 -0.053,5.13662 0.4413,5.27113 0.9655,6.82462 0.4961,2.12821 1.9393,7.99163 0.9323,3.02605 1.7293,4.48948 1.843,4.18417 2.3955,5.16284 3.3489,6.45571 3.412,6.46458 0.024,0.26033 3.7672,7.86543 3.2228,6.43777 2.0991,6.59969 1.4611,5.35164 0.046,0.90684 0.7259,1.90349 1.4426,2.26263 1.1005,4.78604 -11.4016,0.24582 -4.1406,0.0552 -17.5391,0.27442 -6.0214,0.10928 -10.6139,0.16463 -0.1026,-10.17435 -10.3185,0.33514 -0.097,-11.00945 -0.6515,0.0357 -0.2106,-10.70407 1.429,-0.0543 -0.1249,-19.24416 0.053,-12.33851 0.7149,-0.029 0.1151,-19.53154 -0.1141,-12.10506 -1.1655,-1.58023 0.1193,-1.1406 -2.8702,-0.21598 -4.1217,-2.06414 -0.8879,-0.89766 -1.4396,-3.4839 -2.2046,-3.14233 -8.8164,0.22691 -0.127,-7.2199 -0.3934,-0.76328 -1.9072,-2.58575 -1.1731,-1.13119 0.4204,-1.80503 0.6424,-1.58061 0.869,-0.58395 0.024,-1.34685 0.3495,-1.36505 0.6143,-1.00593 11.139,-0.21873 -0.1762,-13.72142 -0.1823,-7.67787 10.8337,-0.32634 z"
     style="fill:#cc2f4a;stroke:#fffdfd;stroke-width:1;stroke-miterlimit:4;stroke-dasharray:none;stroke-opacity:1;fill-opacity:1" />
  <path
     id="FL-9"
     d="m 712.61885,423.96703 -20.9753,0.36518 -8.3238,-0.0242 1.048,-0.49428 0.1755,-1.4541 -1.4786,-1.23871 -0.019,-1.48161 -0.4587,-1.15832 -0.04,-1.35591 0.4039,-0.90719 -1.6174,-1.57994 -0.863,-0.25186 0.4555,-1.22145 -0.067,-0.78106 -0.7044,-0.0344 -0.7315,-1.06828 0.01,-0.83514 0.5979,-0.10713 -0.6558,-0.73616 -0.2368,-0.93388 -1.6727,-2.03792 -0.4608,-1.5443 -0.966,-1.61603 0.2081,-0.48505 -2.4323,-2.53172 -1.7492,-0.76314 -1.3534,0.38644 -2.2113,-0.69981 -0.214,-0.67331 -0.9137,0.0622 -1.3277,-0.57428 0.4823,-0.18861 -0.6459,-0.7991 -0.274,-1.90373 -0.9357,-1.80465 0.6578,-2.47869 -0.7192,-0.74545 -0.1978,0.42203 -2.6225,-0.95141 -0.646,-0.79888 0.9769,-0.053 0.1862,-1.19496 -1.4007,-0.52029 -0.07,-1.16749 -2.1854,-1.66063 -0.6407,-0.0306 -0.1862,-1.24816 -0.9356,-1.8047 -0.5574,-0.14789 -2.3406,0.50371 -0.6945,-0.096 -0.7913,-2.29869 -0.5477,-0.20652 -0.8171,-1.33772 -1.6768,0.79068 -6.1577,0.1542 -1.7919,-0.89792 0.049,-2.30788 1.1032,-0.0351 0.4169,-0.58391 -0.7565,-1.71506 -0.3169,-2.03833 -0.6807,-1.38275 -0.7497,-0.5564 0.1037,-1.01408 1.038,-0.43143 -0.8656,-0.63742 -0.5116,-1.22999 1.8008,-1.15897 0.032,-7.00443 -1.6064,-3.25031 -1.5169,-0.60191 -1.1508,-0.87057 -1.8529,-0.52025 -1.997,-0.0263 -2.2137,-1.08552 -2.0728,-0.35644 -2.068,0.41371 -1.5587,-11.15274 15.3326,-0.20199 6.1344,-7.61688 0.1791,-0.74622 0.6794,-0.61079 4.4663,-0.0732 1.2756,-1.10492 1.048,-0.49427 0.9315,-4.176 -0.04,-4.95698 0.7428,-0.60188 0.737,0.23333 5.9686,-0.18122 0.3135,-0.34137 1.4508,0.21115 0.8991,-0.77247 2.6983,1.28338 3.2997,-0.0458 0.3733,0.88904 0.6317,3.6906 0.6606,1.50847 0.174,0.92487 6.6728,-0.1458 6.4632,-0.0467 5.1176,-0.10923 8.8163,-0.22701 2.2048,3.14239 1.4395,3.48387 0.888,0.89778 4.1217,2.06412 2.8702,0.21601 -0.1193,1.14057 1.1655,1.58022 0.1141,12.10502 -0.1152,19.53157 -0.7148,0.0291 -0.053,12.33854 0.1249,19.24413 -1.4291,0.0543 0.2106,10.70405 0.6515,-0.0356 z"
     style="fill:#86b6f2;fill-opacity:1;stroke:#fffdfd;stroke-width:1;stroke-miterlimit:4;stroke-dasharray:none;stroke-opacity:1" />
  <path
     id="FL-10"
     d="m 649.69165,304.55968 10.3514,-0.13768 -0.024,0.12588 3.5725,-0.13583 0.074,3.5471 7.0717,-0.21753 17.6857,-0.38219 3.2367,-0.0547 -0.6144,1.00591 -0.3495,1.36509 -0.024,1.34683 -0.8688,0.58383 -0.6429,1.58059 -0.4202,1.80505 1.1731,1.13118 1.9072,2.58572 0.3936,0.76322 0.1271,7.21991 -5.1177,0.1092 -6.4631,0.0469 -6.6728,0.14563 -0.1738,-0.92479 -0.6605,-1.50849 -0.6314,-3.69062 -0.3732,-0.8889 -3.2999,0.0458 -2.6982,-1.28334 -0.8991,0.77248 -1.4508,-0.21116 -0.3136,0.34137 -5.9683,0.18126 -0.737,-0.23335 -0.7428,0.6018 0.04,4.95698 -0.9315,4.17596 -1.048,0.49434 -1.2757,1.105 -4.4661,0.0731 -0.6796,0.61062 0.017,-4.11289 -0.3883,0.003 0.046,-1.47242 -2.4264,0.23422 -0.8724,-1.79568 0.055,-3.14305 -0.1072,-2.13708 1.2028,-2.6585 -0.7581,-0.10105 -0.01,-1.1584 1.6814,-0.0183 -0.2592,-1.19439 0.084,-2.11014 -0.5951,-1.11331 -0.111,-4.51692 0.5772,0.0249 0.4573,-0.83523 3.1205,-0.13551 z"
     style="fill:#4389e3;stroke:#fffdfd;stroke-width:1;stroke-miterlimit:4;stroke-dasharray:none;stroke-opacity:1;fill-opacity:1" />
  <path
     id="FL-11"
     d="m 653.94825,283.36557 0.584,2.78365 -0.1791,0.74604 0.016,2.70298 -0.7489,3.04452 -2.0747,2.85617 -1.9744,0.2342 -0.063,8.80044 0.1884,0.0274 -0.1962,0.80782 -3.1207,0.13549 -0.4568,0.83546 -0.5774,-0.0249 0.1112,4.51695 0.5951,1.11321 -0.083,2.11022 0.2595,1.19441 -1.6814,0.0183 0.01,1.15839 0.7581,0.10096 -1.203,2.6585 0.1074,2.13718 -0.055,3.143 0.8724,1.7957 2.4264,-0.23413 -0.046,1.4724 0.3882,-0.003 -0.017,4.11286 -0.1791,0.74606 -6.1344,7.61681 -15.3326,0.20198 1.5586,11.15274 2.068,-0.41359 2.0728,0.35645 -6.1911,5.16523 -2.6922,1.48253 -5.8058,2.77648 -2.3665,1.46434 -1.2719,-0.12132 v -2.3798 l -1.8075,7.3e-4 0.5094,0.84396 0.8057,-0.59276 -0.019,2.11921 -0.4137,-0.63736 -2.7115,9.8e-4 0.2107,1.89474 -0.5673,-0.0864 -0.1354,-1.56249 -0.9424,0.63779 -0.1684,1.00514 -1.0192,-0.0859 0.1276,0.40397 -0.9443,0.25164 -0.025,-0.64665 -1.6995,0.53024 0.1683,-1.00513 -1.3556,-1.3e-4 0.015,-1.28405 -2.6484,0.0101 -0.021,1.7333 -0.9769,0.0531 -1.6035,0.7368 -0.9726,0.82635 -0.8632,-0.25183 -0.029,2.18219 -2.9742,0.0278 0.06,-3.97817 -0.4462,-0.83493 -1.7437,-1.59792 -1.5306,-2.91802 -3.9765,-4.16563 -1.0246,-0.85294 0.024,-1.34682 4e-4,-5.20846 0.5258,-26.48222 -1.4259,-1.16694 -1.8785,0.44045 -0.7326,0.53897 -0.5378,-0.26775 -1.3266,-2.18173 -1.0277,0.36854 -1.2442,-0.69117 -0.7913,-2.29871 -0.6311,-0.0911 -1.2871,-0.82587 -1.0232,1.1408 -0.3179,-0.4311 -1.9766,-0.15364 0.01,-0.44901 -1.0954,-0.41283 -1.2375,0.46739 -1.1428,-1.31986 -0.2492,-1.25711 -0.762,-0.87985 -0.3993,0.0721 -0.1535,-1.05058 -1.269,-1.33775 -0.2492,-1.2571 -0.3457,0.14306 -0.9411,-0.96974 0.4215,-1.41901 -1.4612,-0.14783 -0.3854,-1.2123 1.4018,-1.08708 0.1988,-1.64355 0.6467,-0.80834 0.6221,-1.45496 -0.2975,-0.55683 0.2389,-1.44518 1.7984,-1.54497 0.165,-0.61952 1.9042,-1.4014 0.3209,-0.79058 1.6667,-0.72812 0.6309,0.0911 0.7808,-1.23942 -0.6007,-0.27709 0.4213,-1.41901 1.4875,-0.8175 0.1146,-0.75491 -1.0248,-0.85266 -0.3494,-2.23594 -2.3949,-1.56184 -1.7888,-2.11876 -1.456,-0.97831 -0.663,-1.8945 -0.9387,-0.58366 -2.3972,-1.94811 -0.3777,-1.66128 -1.1474,-2.09186 -0.1208,-0.85317 -0.6007,-0.27707 -0.2389,-1.32008 -0.77,-0.43089 -0.6255,-0.9246 6.5894,-0.0289 3.8679,0.0346 9.6367,-0.11031 18.1499,-0.0591 -10e-5,8.80938 9.3641,-0.0206 1.7062,0.6278 1.1572,-1.57193 2.0117,0.73563 1.4134,0.84377 0.8405,-0.007 3.3664,2.3429 -0.279,0.53879 1.3277,0.57429 0.7643,1.26604 0.01,0.77263 4.3928,-0.0192 0.7067,0.42225 0.279,-0.53913 0.8812,-0.26074 -1.68,2.01187 2.0501,0.0974 0.1556,1.43679 -0.026,2.56831 0.9768,-0.053 1.5305,-0.68273 1.4091,0.0677 0.4465,0.83502 5.7588,-0.0825 0.034,-1.4099 1.838,-0.18916 -0.033,-0.58346 1.7523,-0.45852 2.8581,-0.10899 1.1212,-0.54795 2.1334,-0.0186 1.4772,-0.7549 1.5348,0.091 1.2872,0.8258 1.8708,0.008 1.5203,-0.62033 z"
     style="fill:#cc2f4a;stroke:#fffdfd;stroke-width:1;stroke-miterlimit:4;stroke-dasharray:none;stroke-opacity:1;fill-opacity:1" />
  <path
     id="FL-12"
     d="m 510.49305,262.6087 0.435,-1.09579 2.3867,-1.59007 0.5158,0.005 1.0536,-1.32925 0.8056,-0.59286 2.3836,-0.3689 1.3481,0.44818 0.1172,0.46655 2.4515,0.41139 2.3272,0.78086 1.9285,0.85193 1.1743,-0.4763 0.022,-0.96115 0.8767,-1.03309 1.777,0.18901 1.4347,-0.88952 0.6738,0.22422 1.2554,-0.97929 1.2099,0.10165 0.4395,-0.32345 1.0855,0.47601 0.4065,-0.52092 0.9084,0.77208 2.2731,-1.28488 -0.065,-0.39507 1.6083,0.0349 0.2343,0.548 1.3049,0.31404 1.7716,1.02341 1.2714,1.72383 0.9796,0.33048 0.2143,0.67343 1.7827,-0.64695 0.6964,0.48503 0.194,0.79915 1.6206,0.35884 0.047,0.52104 1.2072,-0.27879 0.5318,1.10429 1.6859,0.75383 0.3991,-0.0721 1.2466,1.07722 1.4438,0.65549 0.514,1.61629 0.6255,0.92469 0.7698,0.43085 0.2389,1.32011 0.6007,0.27709 0.1207,0.85322 1.1474,2.09186 0.3778,1.66132 2.3972,1.94803 0.9387,0.58374 0.6631,1.89456 1.4559,0.97846 1.7888,2.11878 2.395,1.56182 0.3495,2.23595 1.0247,0.85275 -0.1157,0.75497 -1.4875,0.81749 -0.4214,1.41898 0.6009,0.27712 -0.7808,1.23947 -0.6311,-0.0911 -1.6668,0.72799 -0.3207,0.7904 -1.9044,1.40141 -0.165,0.61955 -1.7984,1.54496 -0.2388,1.44522 0.2975,0.55653 -0.6221,1.45493 -0.6466,0.80828 -0.1973,1.64366 -1.4019,1.08706 0.3853,1.2123 1.461,0.14896 -0.4215,1.41897 0.9413,0.96964 0.3458,-0.14278 0.2492,1.25715 1.269,1.33772 0.1533,1.05056 0.3993,-0.0722 0.7619,0.87984 0.2492,1.25713 1.1428,1.31983 1.2375,-0.46737 1.0954,0.41288 -0.01,0.44899 1.9765,0.15342 0.318,0.43113 1.0232,-1.14082 1.2871,0.82589 0.6311,0.091 0.7912,2.29868 1.2442,0.69106 1.0276,-0.36836 1.3267,2.18176 0.5376,0.26772 0.7328,-0.53896 1.8784,-0.44048 1.4258,1.16692 -0.5256,26.48227 -5e-4,5.20839 -2.1864,-0.053 -7.6268,-4.74823 -0.1434,-1.11355 -0.9208,-1.09532 -0.6407,-0.0306 -0.05,-1.29317 -5.6858,0.0288 0.042,-0.70082 -2.3,0.25211 -0.4672,0.89825 -3.5522,0.0102 -0.034,1.40987 -0.4925,0.25171 -0.042,3.46628 -0.2886,0.98779 -1.9202,2.29943 -2.2823,-0.25743 -0.061,1.98457 -1.4922,0.0454 -1.6893,0.46746 -1.5782,-0.22233 -2.195,2.00313 -1.6451,2.59574 0.1964,1.18544 -0.9322,0.57498 -4.9079,0.0102 -2.2339,-0.96016 -1.04,0.0443 -0.6964,-0.48494 -1.4368,0.50324 -1.3253,-0.18851 -2.0173,0.0997 -1.3206,0.584 0.8422,1.9844 -9.0284,-0.0604 -3.4157,-0.0348 -15.2391,0.0224 -1.4392,0.11732 0.8194,-1.87698 1.1516,-0.7367 0.6093,-1.77823 1.2718,0.12144 1.4354,-2.49684 -0.7802,-0.36846 0.2957,-1.43687 0.8104,0.18098 0.3965,-0.45814 -0.8048,-1.01438 1.0075,-0.24286 0.7486,-1.43693 -0.06,-1.23021 1.2408,-1.68858 -0.2896,-1.00591 0.474,-2.95485 1.751,-2.45201 0.3207,-0.79059 -0.5572,-0.1479 0.5733,-0.75458 0.994,-2.55957 -0.3078,-0.49389 0.1336,-2.03861 1.2574,-0.59303 0.1388,-0.49458 -0.79,-0.30469 0.7074,-1.18565 1.1314,-0.61095 0.7098,-0.79944 0.7358,-1.7603 -0.141,-0.72731 -1.1689,-0.35817 -0.057,-0.84409 1.5101,-0.557 0.1115,-1.07736 0.5808,-1.2036 -0.6077,-1.4366 -0.8612,0.13498 1.0031,-1.01488 0.1421,-2.48759 1.4367,-0.50313 0.2272,-0.61066 -1.1022,-1.57123 0.1977,-0.42211 0.9893,0.26927 0.165,-0.61957 -0.628,-1.3109 -0.056,-0.84404 0.9195,-0.89809 -1.0743,-2.14591 -0.4644,-0.32302 0.2473,-1.89418 -1.0471,-1.11307 -0.2086,-1.50847 0.72,-0.86225 -1.0775,-0.92464 0.3103,-0.72764 0.7551,-0.27876 -0.1411,-0.72724 0.8003,0.24271 0.7933,-0.9161 -0.025,-0.64659 -1.3583,-0.38498 0.1036,-1.01405 -0.8452,-0.76296 -1.6738,-0.42979 -0.4566,-0.772 -1.0347,-0.79001 -1.7017,0.14415 0.6517,-1.64362 0.7351,-0.15268 0.4037,-0.9072 1.1789,0.29607 0.3866,-0.39513 -0.8171,-1.33777 0.1277,-3.19695 -0.5804,-0.40398 1.1898,-1.37429 -0.6358,-0.8618 -0.2693,0.47619 -1.3399,-0.89754 -0.194,-0.79915 -0.78,-0.36852 -1.693,-1.91225 0.2125,-1.32008 0.9645,-0.37747 -0.5874,-1.56223 0.6376,-2.35299 2.9797,-0.86301 1.1618,-0.79968 0.1328,-2.42461 -0.7394,-0.61971 0.4273,-0.64644 -0.9692,-0.39443 0.6116,-1.39199 -1.3803,-0.6464 -1.5892,-2.1546 -0.1534,-1.05052 -1.9184,-0.91504 0.022,-0.96115 -1.4562,-0.97831 0.6186,-0.23352 z m -11.0037,99.07065 -0.8406,0.007 -0.091,-4.64264 0.4065,-0.52099 1.0324,0.40363 -0.5834,0.8173 0.085,1.87679 -0.2886,0.98777 z m 11.5956,-75.51625 -0.843,-0.37705 1.659,-0.27892 1.2442,0.69116 0.6988,0.87084 -0.8358,0.78139 -0.5811,1.20356 -1.1733,-1.13117 z"
     style="fill:#d40000;fill-opacity:1;stroke:#fffdfd;stroke-width:1;stroke-miterlimit:4;stroke-dasharray:none;stroke-opacity:1" />
  <path
     id="FL-13"
     d="m 513.48365,387.39417 -0.01,0.0622 -1.4267,0.44042 -0.3709,1.10463 0.5319,1.10432 1.7009,1.46322 1.7266,0.50247 0.8859,0.51122 0.062,0.009 -0.1551,2.55021 0.9569,0.0691 1.0278,-0.36842 0.1884,1.63443 0.8181,-0.2698 -1.3771,1.73364 0.029,3.02627 -0.7682,-0.0383 -0.9499,1.08678 -0.2551,17.19685 -0.1129,-1.30216 -0.9624,0.76355 -0.9794,-0.33054 -0.077,-0.71814 -1.4065,0.31477 -0.8414,1.61674 -0.1015,2.23599 0.2775,0.68225 -0.5228,0.44045 1.1194,2.66675 1.3583,0.38504 -0.7785,1.62565 -3.5532,1.61736 0.1036,-1.01409 -0.5141,-1.61624 -0.4457,-2.44257 0.1827,-1.90321 0.7888,-1.68838 0.057,-2.75685 -0.229,-1.38282 -0.6078,-1.43655 -1.5767,-1.83161 -0.9503,-2.51423 -1.0573,-1.05027 -1.0414,-1.94822 -3.2324,-2.77396 -0.8677,-1.02341 -1.3921,-2.57691 -0.4384,-1.28403 -0.4558,-2.37962 -0.092,-1.42779 1.1209,-5.75663 0.8917,-1.93114 0.4102,-1.7421 0.2268,-2.21819 0.2783,-4.52598 1.1355,-3.43966 0.4961,2.12817 -0.3754,2.32606 0.8024,0.62821 -0.97,1.21254 0.7812,2.36144 -0.084,0.88874 0.5803,0.40398 1.4318,-4.87657 0.2764,-3.3046 0.5894,-1.65256 -1.4712,-0.085 -1.6758,-0.81685 -0.798,0.14409 -1.2263,-1.20291 -0.4737,-1.86762 0.3066,-1.49975 0.9209,1.09541 0.1503,2.27182 0.444,0.44863 0.9972,-0.17981 1.2465,1.07731 1.8708,0.009 -0.3349,-1.52645 0.8462,-0.84429 -0.4993,-0.90691 0.3954,-2.06574 -0.3427,-1.07742 0.3568,-2.58583 -0.9954,-3.03495 -1.8177,0.0632 0.9496,-1.0869 -0.6281,-1.31086 1.4392,-0.1173 15.2391,-0.0224 -0.021,14.14352 -0.046,4.68755 -0.7244,0.0894 -0.3469,2.13713 -0.8002,-0.24273 -0.2843,-1.84075 0.2965,-1.43676 -1.1914,-0.61875 -1.4672,0.69186 0.7765,1.58914 0.7315,1.06838 -1.2382,2.07464 -0.6592,0.48499 -0.1358,0.817 0.6862,0.54763 -1.3994,1.47308 z m 1.2209,35.66827 -0.2774,-0.68244 0.8962,0.44834 z m -15.2764,-55.79745 1.1009,-0.42244 -0.8339,1.16768 0.7237,1.51748 -1.0753,-0.53917 z m -0.7794,-5.57638 0.8406,-0.007 0.2167,1.05949 -0.7481,-0.16427 z"
     style="fill:#e27f90;stroke:#fffdfd;stroke-width:1;stroke-miterlimit:4;stroke-dasharray:none;stroke-opacity:1;fill-opacity:1" />
  <path
     id="FL-14"
     d="m 529.53575,425.16856 1.9561,-3.32321 2.2312,-3.02684 0.331,-0.85307 2.1343,-1.62589 1.3129,-0.13502 0.7327,-0.53907 -0.113,-1.30214 -0.4991,-0.90705 0.3864,-0.39527 2.3182,-0.7639 2.4926,-1.44641 0.6876,-1.05997 -0.7905,-0.30472 1.8469,-2.24551 0.7044,0.0345 0.079,-0.8255 -0.5071,-0.458 0.6367,-0.74561 0.8815,-0.26076 0.4475,-0.7724 0.7797,-3.23302 -0.462,0.0634 -0.4836,-1.80487 -0.09,-2.6491 -1.3368,-2.11879 -2.1127,-0.11038 -1.1147,-1.89454 -0.3915,1.23056 -1.4511,-0.21118 0.1891,-3.57406 -3.2025,2.24591 -0.103,0.62851 0.3394,2.29865 0.8678,1.02353 -0.2987,1.05076 -0.6895,0.67361 -0.039,1.0234 0.8273,1.27479 1.2264,1.20294 -0.4025,2.51486 -1.9336,-0.0173 -2.2846,-0.64563 -1.8349,-1.03191 -0.6489,0.42225 -0.2365,-0.93375 -0.7496,-0.5564 -1.1789,-0.29607 0.1578,-1.77806 1.5957,-0.28792 0.9574,-1.53586 -0.1207,-0.85284 -1.1031,0.0355 -0.016,-1.0954 0.7145,-0.0293 -0.01,-1.1582 0.462,-0.0633 -0.4406,-1.67025 0.2274,-1.83228 -0.7892,-1.91243 -0.7796,-0.36842 0.2999,-0.66462 -0.8476,-1.14913 -1.2926,0.008 -0.8486,0.45842 0.4039,-0.9072 -1.4459,-1.04123 -1.8607,-0.0699 -1.3526,-1.22083 -0.9591,-0.45753 -0.5093,-0.84403 -1.2974,-0.76312 -0.196,-1.18538 -0.7683,-0.0383 0.046,-4.68753 0.021,-14.14351 3.4158,0.0349 9.0282,0.0603 -0.3318,2.46059 -0.9071,1.2215 -0.2437,1.12296 0.256,2.41565 0.6347,2.46941 -0.2438,1.12267 -0.037,2.63112 1.4336,0.71824 2.5359,2.28905 2.2087,0.31425 5.0771,0.14213 4.3299,-0.0282 0.9558,1.67899 0.1005,0.97865 1.1664,-0.026 0.2688,-0.86198 2.4738,0.67288 -0.072,2.04756 -0.6409,-0.0306 -0.3371,1.68839 -0.029,2.18221 0.63,1.6971 0.6259,4.52572 0.416,1.02359 -0.6017,1.32923 0.167,3.36748 -4.0673,9.8e-4 0.3575,1.78701 -0.1486,3.32261 -0.2688,0.86207 -0.1125,3.90633 -1.0388,2.03883 -4.4005,4.06922 0.1906,2.02041 -0.7074,1.18566 -1.5855,0.22483 -2.2358,2.25458 -0.9171,1.28444 -2.2505,1.54525 -1.5055,1.32945 -1.0583,0.55699 z m -13.4354,-5.95893 0.2552,-17.19682 0.9498,-1.08682 0.7681,0.0383 -0.029,-3.02624 1.3769,-1.73369 -0.8182,0.26989 -0.1885,-1.63439 -1.0277,0.36864 -0.9574,-0.0693 0.1551,-2.55026 2.5471,0.61879 0.4971,0.5207 0.5229,-0.44007 0.8758,0.57445 0.9545,-0.31434 -0.9701,1.21251 -0.032,0.5741 0.6739,0.2242 1.6682,1.26564 1.3771,1.86735 0.7482,0.16428 -0.2479,0.73624 0.3677,1.72405 0.6504,1.57122 -0.541,0.95192 0.7166,0.35929 -0.5105,0.7636 -0.5771,-0.0249 -1.1875,1.76028 0.017,0.70943 -1.7199,0.65595 -0.1734,1.06854 0.2975,0.55663 -0.3239,1.6258 -0.7098,0.79947 0.7946,1.07732 -0.4597,0.44914 0.1154,1.68819 -0.9021,1.99384 -0.6468,0.80825 -1.4266,0.44033 -2.6531,-0.76247 z m 27.2059,-16.58487 -0.1442,1.26577 -0.9992,-0.20885 0.3662,-1.87716 0.8201,0.12044 z m 0.8676,-6.1784 -0.042,1.85887 -0.6166,0.61965 -0.8203,-0.12044 0.2607,-2.40654 z"
     style="fill:#86b6f2;stroke:#fffdfd;stroke-width:1;stroke-miterlimit:4;stroke-dasharray:none;stroke-opacity:1;fill-opacity:1" />
  <path
     id="FL-15"
     d="m 532.67905,361.63402 -0.8422,-1.98438 1.3208,-0.58419 2.0171,-0.0994 1.3253,0.18827 1.4369,-0.50323 0.6965,0.48503 1.0399,-0.0442 2.2339,0.96045 4.9079,-0.0102 0.9321,-0.57482 -0.1963,-1.18546 1.6452,-2.59569 2.1951,-2.00317 1.578,0.22233 1.6895,-0.46741 1.4919,-0.0455 0.061,-1.98461 2.2824,0.25747 1.9201,-2.29943 0.2886,-0.98783 0.042,-3.46631 0.4925,-0.25158 0.034,-1.40986 3.5522,-0.0102 0.4672,-0.89826 2.3,-0.25201 -0.042,0.70082 5.6857,-0.0287 0.05,1.29315 0.6407,0.0306 0.9208,1.0953 0.1434,1.11351 7.6268,4.74824 2.1862,0.054 -0.024,1.34683 1.0247,0.85282 3.9764,4.16561 1.5308,2.91805 1.7435,1.59786 0.4462,0.83492 -0.06,3.97816 -0.068,4.42716 0.2242,0.61053 1.2589,1.40049 0.2675,0.74517 -0.075,10.47068 -0.3944,0.84406 -1.4189,-0.008 0.046,0.90656 -1.8077,7.5e-4 0.042,1.74218 -1.3658,0.0634 -0.021,1.73325 -2.1333,0.0184 -0.9354,1.79635 -0.9591,-0.45753 -3.6152,9.8e-4 -2.1833,-1.2745 -10.9925,0.11085 -6.0644,-0.0251 -7.4932,0.029 -3.0666,-1.40005 -0.7781,0.0224 -0.6299,-1.69715 0.029,-2.18219 0.3374,-1.68832 0.6408,0.0306 0.071,-2.04759 -2.4736,-0.67277 -0.2686,0.86198 -1.1664,0.026 -0.1004,-0.97861 -0.9559,-1.67902 -4.3299,0.0281 -5.077,-0.14211 -2.2087,-0.31424 -2.536,-2.28907 -1.4336,-0.71835 0.037,-2.63113 0.2437,-1.12267 -0.6346,-2.46945 -0.2561,-2.41562 0.2438,-1.12294 0.9068,-1.2215 z"
     style="fill:#e27f90;stroke:#fffdfd;stroke-width:1;stroke-miterlimit:4;stroke-dasharray:none;stroke-opacity:1;fill-opacity:1" />
  <path
     id="FL-16"
     d="m 529.53575,425.16856 3.2266,0.008 1.0581,-0.55686 1.5056,-1.32948 2.2504,-1.54524 0.9173,-1.2844 2.2356,-2.25461 1.5857,-0.22494 0.7074,-1.18567 -0.1907,-2.02042 4.4005,-4.0692 1.0388,-2.0388 0.1126,-3.90638 0.2685,-0.86206 0.1485,-3.32262 -0.3573,-1.787 4.0673,-9.9e-4 -0.1671,-3.36743 0.6016,-1.32923 -0.4158,-1.0236 -0.6258,-4.52573 0.7779,-0.0213 3.0667,1.40007 7.4932,-0.0291 6.0644,0.0253 10.9925,-0.11075 2.1831,1.27444 1.8076,-4.5e-4 -0.04,7.45343 0.1129,1.30216 -0.1084,4.67864 -0.1387,4.86718 -0.205,22.09094 -0.3096,15.13144 -0.2239,15.40074 -0.1865,7.5612 -0.088,8.15389 -21.5556,-0.0387 0.409,-21.35458 -15.2288,-0.0407 -6.0214,0.1093 -0.019,-0.32399 -1.492,0.0451 -19.854,-0.18292 -1.95,-2.72039 -1.5116,-1.43634 -1.6149,-1.19404 -0.06,-1.23023 -1.744,-5.1989 -0.7234,-1.51745 -1.0293,-1.62502 -1.9883,-2.08271 0.1038,-1.01409 2.5943,1.52573 1.0955,0.41284 -0.2922,2.59505 0.3811,0.43976 2.2393,0.12353 -0.05,-1.29316 1.3893,-1.41013 1.3534,-0.38655 0.6743,0.22424 1.5731,-0.54817 -0.4893,-0.96978 1.2679,-0.65611 0.315,-1.5629 0.5834,-0.8173 1.6623,-1.50019 0.012,-1.67023 1.7174,-1.04228 0.9768,-0.0532 1.0684,-0.61989 1.3442,-1.93099 0.3718,-2.71217 z m -22.5197,7.54059 -0.3991,0.0722 0.1551,-2.55028 0.4013,0.3143 z"
     style="fill:#e27f90;stroke:#fffdfd;stroke-width:1;stroke-miterlimit:4;stroke-dasharray:none;stroke-opacity:1;fill-opacity:1" />
  <path
     id="FL-17"
     d="m 569.78225,530.29517 -1.7447,0.01 -1.492,0.0452 -0.8836,-0.12554 -1.3525,-1.2208 -4.7663,-0.8688 -0.83,-0.0592 -1.135,-1.76883 0.034,-1.40986 -2.0255,-3.05261 -2.6004,-4.29172 -0.9615,-0.84382 -0.8373,-1.21209 -3.0164,-5.31525 -1.117,-2.28059 -2.0581,-3.25015 -0.9705,-2.38831 -0.9786,-1.93933 -2.8449,-4.77658 -2.0641,-6.01602 -0.3911,-0.37713 -0.8185,-3.33135 -2.4032,-4.71382 -0.3427,-1.07745 -2.0245,-4.66008 -1.4833,-2.01098 -0.9152,-1.93034 -2.0872,-1.06831 -0.595,-1.11329 1.0816,-1.90416 -0.9692,-0.39431 -0.7541,-1.32879 -1.1529,-1.25688 -0.353,-1.01484 -3.5977,-4.11182 -1.4629,-2.13692 -0.5219,-1.16724 19.854,0.18288 1.4921,-0.0455 0.019,0.32398 6.0214,-0.1093 15.2288,0.0407 -0.4092,21.35458 21.5558,0.0388 -0.246,9.93192 -0.1229,11.17114 7.0943,0.0428 1.0379,-0.43113 20.8515,0.003 11.4445,-0.11097 2.9008,0.026 10.9294,-0.11989 -0.7172,38.47959 0.1114,20.52828 -3.5094,0.14446 -1.7342,-0.0552 -0.025,-0.64662 -1.9439,0.0455 -0.6898,0.67368 -1.3322,-1.34671 -3.362,-1.57058 -0.055,-5.6664 -0.3181,-0.4311 -4.9283,0.13607 -0.8858,-0.51149 -1.7447,0.009 0.01,-0.83513 -1.6915,0.0814 -0.011,-1.93054 0.3684,0.1209 -0.042,-1.74215 -0.8406,0.007 -0.031,1.79593 -1.7447,0.009 -0.3043,-1.71505 -2.3961,0.0457 -0.039,-1.3559 -1.3738,0.51205 0.052,-1.92159 -1.7412,-1.21204 -1.493,1.6528 -3.1396,2.2549 -1.9172,-2.52276 -0.2243,-0.6105 0.1401,-2.87369 -0.6225,-2.14617 -2.6174,-5.38724 -14.3983,0.0133 0.1015,-2.236 0.705,-1.57168 -0.2661,-2.35269 -0.064,-2.00247 0.2608,-2.40656 -0.1253,-1.62546 -0.6231,-0.53862 -2.7917,-1.10348 -0.6031,-0.66433 -0.362,-2.55921 1.3239,-1.80535 0.8736,0.18746 1.1967,-0.21573 1.3815,-0.96136 0.1388,-0.49477 -1.3344,-1.73274 -1.3481,-0.44837 -0.977,0.0533 -0.4594,0.44917 -1.2497,0.14388 0.032,-0.57419 -1.5069,-0.66456 -0.165,0.61975 0.3732,0.88883 -1.1313,0.61084 -1.6021,2.7304 -0.9749,0.44039 -0.7271,-0.29534 -0.6254,-0.92488 -0.77,-0.43067 -0.6786,-0.99661 -1.0154,0.69185 0.1681,1.76015 1.1193,2.66672 1.8398,5.40549 0.8033,7.83034 z"
     style="fill:#cc2f4a;stroke:#fffdfd;stroke-width:1;stroke-miterlimit:4;stroke-dasharray:none;stroke-opacity:1;fill-opacity:1" />
  <path
     id="FL-18"
     d="m 712.61885,423.96703 10.3185,-0.33513 0.1026,10.17436 10.6139,-0.16457 0.023,3.86141 0.161,9.41101 0.1101,18.53475 -0.067,0.0584 0.077,5.92681 0.067,14.79906 -1.7555,1.67961 -6.1787,5.48855 -9.0555,7.71646 -5.7922,5.09327 -0.053,1.14958 0.028,17.04408 -0.026,18.57966 0.021,7.07625 0.282,13.86506 -0.01,3.66383 0.3561,12.20374 -0.1884,-0.0272 0.1882,10.44371 -10.7175,0.40703 -16.1406,0.4087 -3.6457,0.18952 -5.3701,0.0736 -7.082,0.28048 -0.1836,-9.67139 -0.074,-1.93957 -0.083,-8.69263 -3.4361,0.0907 -1.9946,0.35972 -12.4419,0.29099 -0.058,-8.04611 -12.0633,-3.25629 -2.1436,0.0816 -0.011,-3.53812 -0.1114,-20.52831 0.7172,-38.47957 -10.9294,0.11987 -2.901,-0.0258 -11.4445,0.11101 -20.8513,-0.003 -1.0378,0.43128 -7.0942,-0.043 0.1228,-11.17117 0.2461,-9.93194 0.088,-8.15389 0.1865,-7.56115 0.2239,-15.40078 0.3095,-15.13144 0.2051,-22.09089 0.1386,-4.86724 0.1087,-4.67864 -0.1125,-1.30206 0.04,-7.45348 1.8076,-6.5e-4 0.959,0.45751 0.9355,-1.79635 2.1333,-0.0187 0.021,-1.73322 1.366,-0.0634 -0.042,-1.74214 1.8075,-9.4e-4 -0.046,-0.90674 1.4188,0.008 0.3944,-0.84429 0.075,-10.47065 -0.2673,-0.74527 -1.2589,-1.40045 -0.2241,-0.6105 0.068,-4.42719 2.9741,-0.0278 0.029,-2.18216 0.8631,0.2518 0.9727,-0.82645 1.6035,-0.73692 0.977,-0.0531 0.022,-1.73315 2.6485,-0.0101 -0.015,1.28405 1.3556,1.3e-4 -0.1683,1.00511 1.6995,-0.53034 0.025,0.64656 0.9445,-0.2517 -0.1277,-0.40401 1.0191,0.0859 0.1684,-1.00508 0.9423,-0.63785 0.1357,1.56256 0.5674,0.0863 -0.2111,-1.89475 2.7115,-9.8e-4 0.4137,0.63735 0.019,-2.11922 -0.8058,0.59287 -0.5094,-0.84393 1.8076,-7.5e-4 v 2.37986 l 1.2717,0.12121 2.3665,-1.46429 5.8059,-2.7765 2.6922,-1.48247 6.1911,-5.16525 2.2135,1.08547 1.9971,0.0263 1.8529,0.52035 1.151,0.87058 1.5169,0.60194 1.6061,3.25028 -0.032,7.00443 -1.8008,1.15901 0.5119,1.22994 0.8654,0.63741 -1.0378,0.43137 -0.1052,1.014 0.7497,0.55635 0.6806,1.38282 0.3169,2.03834 0.7564,1.71506 -0.417,0.58389 -1.1033,0.0355 -0.049,2.30792 1.7918,0.89778 6.1579,-0.15439 1.6768,-0.79058 0.8171,1.33779 0.5477,0.20625 0.7912,2.29869 0.6943,0.096 2.3407,-0.50373 0.5573,0.1479 0.9356,1.80468 0.1862,1.24817 0.6407,0.0306 2.1854,1.66061 0.07,1.16749 1.4009,0.52029 -0.1862,1.19499 -0.977,0.0532 0.6459,0.7991 2.6226,0.95118 0.1978,-0.42209 0.7191,0.7452 -0.6576,2.47872 0.9356,1.80467 0.274,1.90369 0.6459,0.79899 -0.4823,0.18862 1.3277,0.57425 0.9136,-0.0622 0.2142,0.67355 2.2111,0.69977 1.3535,-0.38644 1.7491,0.76318 2.4323,2.53174 -0.208,0.48489 0.9659,1.61599 0.4609,1.54434 1.6727,2.03789 0.2368,0.9338 0.6558,0.73619 -0.5982,0.10735 -0.01,0.83514 0.7316,1.06832 0.7046,0.0344 0.067,0.78106 -0.4557,1.22145 0.8632,0.25181 1.6172,1.57994 -0.4037,0.90722 0.04,1.35588 0.459,1.15836 0.019,1.48161 1.4786,1.23876 -0.1755,1.4541 -1.048,0.49422 8.3238,0.0244 z"
     style="fill:#cc2f4a;fill-opacity:1;stroke:#fffdfd;stroke-width:1;stroke-miterlimit:4;stroke-dasharray:none;stroke-opacity:1" />
  <path
     id="FL-19"
     d="m 581.79455,530.26476 14.3983,-0.0134 2.6174,5.38729 0.6224,2.14613 -0.1401,2.8737 0.2243,0.61071 1.9174,2.52272 3.1394,-2.25486 1.4932,-1.6528 1.7412,1.21191 -0.052,1.9216 1.3737,-0.51207 0.039,1.35589 2.396,-0.0455 0.3046,1.71505 1.7445,-0.01 0.031,-1.79598 0.8406,-0.007 0.042,1.74218 -0.3682,-0.12079 0.011,1.93062 1.6914,-0.0812 -0.01,0.83527 1.7445,-0.009 0.886,0.51152 4.9282,-0.13609 0.3181,0.43128 0.055,5.66642 3.3619,1.57055 1.3322,1.34669 0.6897,-0.67362 1.944,-0.0454 0.025,0.64664 1.7343,0.0552 3.5093,-0.14477 0.011,3.53814 0.054,10.87478 -10.6971,0.28138 0.063,12.41936 -9.7733,0.15528 0.3529,1.0145 -0.011,5.27128 0.6347,2.46942 0.023,3.86139 2.0401,0.15932 -0.1897,1.58063 0.041,3.3495 -1.429,0.0543 -0.3508,-0.62848 -1.8075,7.5e-4 0.017,0.70945 0.8405,-0.007 0.084,7.08517 -0.4066,0.52121 2.8787,3.36668 2.2056,1.53493 -0.4677,9.70754 -0.8271,2.32606 0.8125,0.56529 2.0219,0.67323 2.0297,0.22355 0.4138,0.63729 0.863,0.25183 0.09,1.04153 1.2263,1.2029 0.4204,1.79597 -0.1968,2.02973 -0.6762,-0.61062 -2.8895,1.90459 -0.3639,0.65542 0.6483,1.18522 -0.9939,2.55957 -1.277,-0.88881 -3.066,-6.60845 -1.2619,-0.18306 -0.2886,-2.61311 -0.7215,-1.13121 -1.615,-1.19393 -0.2669,-0.74512 1.2835,-1.55399 0.6818,-0.2245 -0.772,-0.81662 -0.398,-1.53537 -0.9614,-0.84381 -0.5097,-0.84384 -1.1543,-3.25046 -1.276,-2.49609 -1.8555,-4.50742 -0.705,-7.23772 -0.6245,-2.53216 -0.182,-4.07691 -0.3995,-3.52905 -1.3339,-6.94116 -1.1687,-3.95953 -1.1724,-2.73857 -0.8398,-1.59811 -0.6201,-1.75986 -1.7031,-1.84929 -0.2445,-0.48489 -1.1915,-0.61884 -1.5408,-2.8552 -1.3094,-1.08638 -1.6455,-1.00527 -1.9915,-0.86114 -1.3118,-1.47249 -0.03,-1.41883 -3.0643,-1.01395 -1.313,0.13501 -0.5072,-0.45786 0.533,-2.11062 -0.095,-1.81386 -0.5522,-0.97871 -1.1264,-0.22237 -1.7299,0.71906 -0.2368,-0.93388 -1.6297,-1.90328 -1.2204,1.56297 -0.2517,1.18588 0.2819,1.45475 1.2962,2.3704 -3.2444,0.50404 -1.1416,0.67392 -1.0296,-0.0209 -0.1207,-0.85323 0.7007,-2.34394 -0.9489,-0.52075 0.7955,-0.52985 -1.0674,-0.98759 -0.1983,-1.57141 -0.8929,-1.67005 -0.2615,-1.58039 0.087,-1.72403 -0.8185,-3.33136 -0.7273,-0.29536 -0.6377,-1.24792 -0.2923,-1.39173 0.572,-1.14057 -0.7745,-1.20312 -1.7764,-1.79551 -0.3734,-0.88866 -1.3175,-0.63715 -0.1985,-1.57143 1.1066,-1.25754 1.7119,-0.20709 0.717,0.35933 2.8195,0.52924 1.5264,2.14565 0.8523,1.92143 -0.024,1.34683 0.5424,1.04167 1.1967,-0.21606 0.6366,-0.74552 -0.9761,-1.55329 0.5536,-2.23634 0.1968,-2.02975 0.6093,-1.77824 1.4636,-3.07159 z m -15.2492,0.085 -0.5105,0.7637 -0.5073,-0.45797 -1.1867,0.15298 -1.0851,-0.47593 -2.1491,0.91653 -1.1311,4.21198 0.07,1.16743 -0.5475,-0.20622 -0.01,-4.3732 -0.4928,-3.34943 -0.2875,-0.61943 0.83,0.0593 4.7661,0.8688 1.3527,1.22082 z m 0.8969,28.87051 0.1307,0.79022 0.8802,1.34671 0.1965,1.18519 1.2388,1.52624 1.8372,1.4182 1.8381,-0.18923 1.3805,0.64638 3.4498,2.22611 1.3061,-1.29339 1.1032,-0.0355 0.47,-0.51204 3.3441,2.08257 1.9866,0.0906 -5.425,3.2164 -1.3534,0.38644 -2.535,-0.29207 -3.1399,-1.34618 -2.4097,-2.27116 -2.6679,-1.47194 -0.8046,-1.0146 -0.6506,-1.57125 -1.228,-6.79748 -0.6673,-2.66691 -0.9331,-1.4186 -0.76,-0.49378 -0.4057,-1.08636 0.053,-1.14962 0.4701,-0.51204 0.6332,0.47609 0.8545,2.30771 0.9042,3.60067 0.5848,1.17623 z m -4.7183,-17.58155 -0.5365,1.72424 0.5874,1.56227 0.5501,0.59262 0.433,2.11919 0.5476,0.20625 -0.4956,1.47288 -0.867,-2.6309 -0.5173,-0.39474 -1.2886,-2.81937 -1.5565,-1.95726 0.4555,-1.22145 0.3163,-1.94851 1.0706,-0.23412 0.3957,1.14935 -0.3292,1.23942 z"
     style="fill:#cc2f4a;stroke:#fffdfd;stroke-width:1;stroke-miterlimit:4;stroke-dasharray:none;stroke-opacity:1;fill-opacity:1" />
  <path
     id="FL-20"
     d="m 790.68915,606.80495 -2.7622,0.31507 -1.7241,-0.11841 -2.7215,0.0638 -0.1057,-1.75124 -2.0071,0.0363 -1.9757,-1.7594 -1.881,0.0544 -0.03,-1.41887 0.3766,-0.33245 -1.5553,0.0362 v -1.2211 l -1.8076,7.5e-4 0.057,4.44508 -0.825,-0.88878 -0.9771,0.0532 -0.034,1.40983 -1.7367,-0.43867 -0.017,2.50545 -1.8177,0.0635 0.035,-3.01727 -8.6509,-2.00005 -0.7682,-0.0383 -0.2999,0.66449 0.7555,3.32242 0.154,8.25256 0.3878,10.40773 -26.7545,0.57335 -0.026,-2.6401 -7.7028,0.12783 -13.6511,0.18341 0.017,-2.50544 -0.4253,-14.97849 -0.3174,-5.63937 -0.072,-10.36297 -0.1882,-10.4437 0.1884,0.0273 -0.3563,-12.20376 0.01,-3.66379 -0.282,-13.86509 -0.021,-7.07625 0.026,-18.57963 -0.028,-17.0441 0.053,-1.14957 14.8908,-0.26478 13.189,-0.12055 5.4434,-0.12719 0.02,3.47523 1.7447,-0.01 3.6889,3.54606 7.1233,6.67009 6.023,5.48508 1.8091,1.99313 3.6202,4.37224 -0.073,3.65488 5.7387,0.0432 0.079,-2.49651 0.212,-0.93444 0.8406,-0.007 0.016,-0.89811 0.4957,0.12869 3.5421,0.0528 -0.01,0.83513 3.5094,-0.14465 1.8076,-6.4e-4 -0.085,1.33819 1.6128,0.8076 0.1005,0.97886 11.0984,0.0328 0.4181,-0.58371 -0.6357,-0.86201 -0.126,-2.01131 -1.6793,0.40464 0.019,-2.11919 -1.7874,-0.12498 0.2733,-5.29829 4.1161,2.89938 0.2523,0.034 0.056,-2.75699 0.6709,-1.7695 3.0373,-0.0188 0.019,0.45219 1.5025,-0.10819 -0.4018,1.29323 0.3324,1.52628 -0.5492,1.40087 0.073,1.16775 -0.3543,0.20695 -0.08,4.10398 -0.3733,-0.12121 -0.01,1.22109 -0.9873,0.11674 0.1341,0.79063 -0.7265,0.92539 0.5277,1.10384 -0.2983,1.69454 -4.5719,-0.0706 -10.0683,-0.0151 -0.021,1.73323 -1.7769,-0.18901 -0.1355,-1.56245 -8.6395,-0.0694 -7.2307,0.002 0.1408,0.72717 1.6492,3.38504 1.6499,1.77759 5.9914,3.68006 3.2519,4.25563 1.7931,2.89101 1.24,3.51979 0.074,3.54714 0.1682,1.76012 -1.6076,7.16645 -0.1075,3.07126 -1.6577,2.27237 0.069,2.77482 -5.0434,-1.55214 0.016,15.11338 11.6214,-0.40746 0.073,1.93927 2.2942,-3.01797 0.3715,-0.71875 1.7874,0.12488 -0.063,-2.00226 1.6182,-0.0272 0.7141,-3.62819 0.7661,0.0381 0.7498,-3.04439 -0.07,-1.55325 2.1128,0.11048 -0.3503,0.97906 -2.761,11.11803 -1.0298,-0.0209 0.01,1.5443 -0.2427,0.73699 -1.2732,1.49103 -0.2038,1.45076 -0.9554,2.30785 0.672,1.05993 1.0546,0.66419 0.1565,2.20863 -0.5033,1.15011 -2.2069,0.0727 z"
     style="fill:#002b84;fill-opacity:1;stroke:#fffdfd;stroke-width:1;stroke-miterlimit:4;stroke-dasharray:none;stroke-opacity:1" />
  <path
     id="FL-21"
     d="m 804.67325,526.48369 -1.4996,0.49424 0.5492,-1.40098 -0.3305,-1.52601 0.4018,-1.29324 -1.5022,0.10822 -0.019,-0.4522 -3.0372,0.0187 -0.6708,1.7695 -0.056,2.75698 -0.2525,-0.0339 -4.116,-2.89937 -0.2732,5.29829 1.7872,0.12488 -0.019,2.11921 1.6792,-0.40464 0.1262,2.01129 0.6355,0.86189 -0.4181,0.58373 -11.0984,-0.0327 -0.1005,-0.97886 -1.6128,-0.80763 0.085,-1.33816 -1.8077,7.5e-4 -3.5094,0.14445 0.01,-0.83515 -3.542,-0.0529 -0.4958,-0.12871 -0.016,0.89802 -0.8407,0.007 -0.2119,0.93459 -0.08,2.49645 -5.7385,-0.0433 0.073,-3.6549 -3.6204,-4.37225 -1.8089,-1.99309 -6.0231,-5.48509 -7.1232,-6.67013 -3.6891,-3.54603 -1.7445,0.01 -0.021,-3.47528 -5.4432,0.1272 -13.189,0.12053 -14.8908,0.26473 5.7922,-5.09326 9.0556,-7.71642 6.1786,-5.48853 1.7555,-1.67969 -0.067,-14.79905 -0.077,-5.92679 0.067,-0.0584 -0.1102,-18.53476 -0.1608,-9.41099 -0.023,-3.86137 6.0214,-0.10934 17.5391,-0.27435 4.1406,-0.0552 11.4016,-0.24585 1.063,3.81619 1.205,2.93614 1.2074,3.32225 -0.047,0.7643 3.1937,8.61995 3.1168,6.2941 0.7383,2.22674 2.0144,4.72298 1.7473,3.97761 3.4978,6.73405 0.8996,2.82846 -0.4475,0.77249 1.4091,3.67242 0.3451,1.46372 0.9481,2.12799 1.8813,3.54658 2.5285,6.33914 0.8736,3.78933 1.6708,5.25287 0.5512,2.20018 2.2953,7.78496 1.6945,7.50684 0.01,2.76621 z"
     style="fill:#cc2f4a;stroke:#fffdfd;stroke-width:1;stroke-miterlimit:4;stroke-dasharray:none;stroke-opacity:1;fill-opacity:1" />
  <path
     id="FL-22"
     d="m 804.67325,526.48369 -0.079,0.82245 0.4883,6.17809 -0.033,3.01753 -0.2379,1.63946 -0.1249,3.58307 0.1883,5.2353 -0.2593,4.01418 -0.296,2.84984 -0.3358,0.91673 -0.5826,3.45438 -0.8649,6.50061 -0.2924,2.78642 -0.3217,0.0251 -0.1331,1.39776 -1.5376,-0.47552 -2.2066,0.0727 -0.3096,1.82114 -3.0476,0.0817 v -0.89913 l -1.8809,0.0546 0.046,0.90663 -2.7845,0.055 0.022,1.86791 -3.5624,0.0729 0.04,1.35593 -3.6785,-0.008 0.1078,-3.07121 1.6075,-7.1665 -0.1681,-1.76008 -0.074,-3.54712 -1.24,-3.51979 -1.7932,-2.89102 -3.2518,-4.25561 -5.9913,-3.68011 -1.6501,-1.77758 -1.6491,-3.38501 -0.141,-0.72723 7.2306,-0.002 8.6395,0.0695 0.1353,1.56248 1.7771,0.189 0.021,-1.73326 10.0684,0.0152 4.5722,0.0706 0.2982,-1.69471 -0.5274,-1.10383 0.7295,-0.925 -0.1309,-0.79021 0.9875,-0.11675 v -1.22168 l 0.3722,0.12103 0.08,-4.10409 0.3544,-0.20698 -0.073,-1.16778 z"
     style="fill:#86b6f2;stroke:#fffdfd;stroke-width:1;stroke-miterlimit:4;stroke-dasharray:none;stroke-opacity:1;fill-opacity:1" />
  <path
     id="FL-23"
     d="m 802.19485,567.47821 0.01,0.64271 -0.01,0.0623 -0.8381,10.81229 -0.4764,2.1189 -0.5171,7.25654 -0.3594,0.27026 -0.4154,1.80555 -0.5762,4.35518 -1.0422,8.40445 -0.1944,4.79522 -0.1645,0.23379 -1.954,0.10823 -0.023,-0.45251 -1.1359,-0.1588 -0.8872,0.2602 -2.0805,0.0905 0.2539,-1.37961 -1.0503,0.10816 -0.031,-1.80487 2.2068,-0.0726 0.5033,-1.15015 -0.1565,-2.20863 -1.0549,-0.6644 -0.672,-1.05999 0.9553,-2.3079 0.2038,-1.45075 1.2732,-1.49102 0.2426,-0.73701 -0.01,-1.54432 1.0297,0.0208 2.761,-11.11805 0.3532,-0.97863 -2.1127,-0.11048 0.07,1.55328 -0.7499,3.04434 -0.7661,-0.0381 -0.714,3.62819 -1.6186,0.0274 0.063,2.00235 -1.7873,-0.12499 -0.3714,0.71881 -2.2942,3.01792 -0.073,-1.93933 -11.6213,0.40749 -0.016,-15.11339 5.0434,1.55218 -0.069,-2.77486 1.6576,-2.27239 3.6786,0.008 -0.04,-1.35589 3.5624,-0.073 -0.022,-1.86791 2.785,-0.0549 -0.046,-0.90676 1.8807,-0.0546 v 0.89915 l 3.0475,-0.0816 0.3098,-1.82117 2.2065,-0.0726 1.5379,0.47555 0.1315,-1.39787 z"
     style="fill:#86b6f2;fill-opacity:1;stroke:#fffdfd;stroke-width:1;stroke-miterlimit:4;stroke-dasharray:none;stroke-opacity:1" />
  <path
     id="FL-24"
     d="m 794.18595,648.77657 -1.0041,-0.97866 1.3128,-0.13504 -3.6142,-1.60642 -1.1307,-0.9966 -1.0705,0.23417 -1.6206,-0.35883 -0.2054,-0.73641 1.828,-0.1262 -0.078,-1.10433 0.4511,-0.77208 -2.6383,-0.0533 -2.5424,0.15352 -1.8205,-0.32081 -0.4807,-1.03278 -0.082,-1.4905 0.3866,-0.003 -0.01,-1.15844 0.9149,-0.0624 -0.1569,-3.04446 -1.8279,0.12644 -0.039,-1.35584 -1.7017,0.14445 -0.036,-0.96975 -0.6662,-0.67346 -1.2097,-0.10274 -0.157,-3.43032 1.8177,-0.0635 -0.2743,-5.50469 -0.016,-2.70294 5.9887,-0.30701 1.757,0.31298 0.2514,-0.35021 4.6228,-0.24384 0.023,2.63967 5.2741,-0.2799 -0.12,3.5197 -0.2385,3.37548 -0.063,2.37056 0.349,3.84331 0.055,2.45129 -0.2384,3.88877 -1.0075,5.06525 0.039,0.77487 z"
     style="fill:#4389e3;stroke:#fffdfd;stroke-width:1;stroke-miterlimit:4;stroke-dasharray:none;stroke-opacity:1;fill-opacity:1" />
  <path
     id="FL-25"
     d="m 797.56055,608.23084 -0.2687,1.50598 -0.4076,3.99439 -0.495,8.67478 -5.2741,0.27972 -0.022,-2.63967 -4.623,0.24392 -0.2515,0.35037 -1.7569,-0.31295 -5.9888,0.30687 0.016,2.70296 -1.7649,0.13529 -0.001,1.6073 -1.7445,0.01 -14.2598,0.35437 -0.3876,-10.40772 -0.1541,-8.25259 -0.7555,-3.32244 0.2999,-0.66471 0.7681,0.0383 8.6509,2.00004 -0.035,3.01732 1.8177,-0.0635 0.017,-2.50543 1.7367,0.43858 0.034,-1.40985 0.977,-0.0531 0.825,0.88866 -0.058,-4.44508 1.8076,-7.4e-4 v 1.22113 l 1.5553,-0.0362 -0.3766,0.33263 0.03,1.41892 1.8808,-0.0547 1.9758,1.75941 2.0071,-0.0366 0.1045,1.7511 2.7218,-0.0638 1.7239,0.11831 2.7623,-0.31512 1.0502,-0.10791 -0.2539,1.37966 2.0809,-0.0905 0.8871,-0.26023 1.1363,0.15882 0.02,0.45234 z"
     style="fill:#86b6f2;stroke:#fffdfd;stroke-width:1;stroke-miterlimit:4;stroke-dasharray:none;stroke-opacity:1;fill-opacity:1" />
  <path
     id="FL-26"
     d="m 627.34795,635.30905 0.1968,-2.02975 -0.4206,-1.79593 -1.2262,-1.20291 -0.09,-1.04154 -0.8632,-0.25182 -0.4138,-0.63717 -2.0297,-0.22354 -2.0218,-0.67333 -0.8125,-0.5654 0.8272,-2.32601 0.4677,-9.70753 -2.2056,-1.53491 -2.8787,-3.36674 0.4067,-0.52097 -0.084,-7.08521 -0.8408,0.007 -0.017,-0.70962 1.8077,-7.5e-4 0.3507,0.62835 1.429,-0.0543 -0.041,-3.34955 0.1897,-1.58062 -2.0402,-0.15931 -0.023,-3.8614 -0.6346,-2.46942 0.011,-5.27126 -0.3529,-1.01472 9.7731,-0.15537 -0.063,-12.41933 10.6972,-0.28148 -0.054,-10.87472 2.1434,-0.0817 12.0635,3.25637 0.058,8.04604 12.4419,-0.29096 1.9946,-0.35982 3.4361,-0.0908 0.083,8.69266 0.074,1.93953 0.1836,9.67144 7.082,-0.28049 5.3701,-0.0737 3.6457,-0.18941 16.1406,-0.40869 10.7175,-0.40701 0.072,10.3629 0.3171,5.63936 0.4253,14.97854 -0.017,2.50543 13.6511,-0.18339 7.7028,-0.12786 0.026,2.64012 26.7545,-0.57332 14.2595,-0.35438 1.7446,-0.009 v -1.60725 l 1.7649,-0.1353 0.2745,5.50466 -1.8177,0.0635 0.1569,3.43029 1.2097,0.10273 0.666,0.67326 0.036,0.96973 1.7017,-0.14444 0.039,1.35585 1.8277,-0.1265 0.1569,3.04447 -0.9148,0.0621 0.01,1.15839 -0.3865,0.003 0.083,1.49066 0.4807,1.03266 1.8203,0.32078 2.5423,-0.15335 2.6383,0.0532 -0.451,0.77211 0.078,1.1043 -1.8278,0.12623 0.2053,0.73647 -2.0024,0.80874 -0.9789,0.0531 -1.9363,-0.40393 -0.023,-0.64635 -0.9248,-0.26034 -0.9962,0.18015 -0.9613,1.14965 -0.874,-0.18751 -2.4895,0.2253 -1.2373,0.46739 -1.1357,-0.15878 -3.0474,0.0816 -1.7649,0.13506 -0.074,-1.93955 -1.7447,0.01 0.085,1.87685 -3.2694,-0.14295 -0.6164,0.61965 0.2438,2.09236 -25.7775,0.51915 -3.027,-0.0442 -16.6454,0.33699 -0.4319,-0.12479 -4.8746,-5.00049 -12.0001,0.35372 -13.2826,0.30014 -2.7115,9.9e-4 -19.9881,0.24816 -5.1176,0.10929 -13.2623,0.17441 0.6674,-0.93403 -1.3703,-0.70942 -0.3709,-0.50274 -1.0827,-0.0923 -0.4159,-1.02348 -1.3175,-0.6372 -0.7225,0.47608 -0.3937,-0.76306 -0.8632,-0.2518 -0.7549,0.27873 0.2189,-1.38346 -0.7192,-0.74531 -1.4874,0.8175 -0.5421,-1.04168 -0.9692,-0.39429 -0.364,0.65551 -0.9209,-1.09546 -0.6612,0.0983 -0.4184,-1.40967 -2.4807,-1.83115 -1.9012,0.18019 -1.0347,-0.79009 -0.5515,1.01482 z"
     style="fill:#d40000;stroke:#fffdfd;stroke-width:1;stroke-miterlimit:4;stroke-dasharray:none;stroke-opacity:1;fill-opacity:1" />
  <path
     id="FL-27"
     d="m 773.71495,675.64164 -0.8048,-1.01459 -0.8408,0.007 -2.2259,-1.40926 -0.282,-1.45474 -1.1364,-0.15884 -0.076,-0.71799 0.7099,-0.79945 -0.4384,-1.28397 -0.7722,-0.81667 -0.2277,-2.99021 -0.6787,-0.99665 -0.432,-3.72659 -0.049,-2.90052 0.6604,-2.09256 -0.1549,-3.04423 1.2294,-0.0173 0.6428,-1.58054 -0.075,-1.93976 1.7549,-0.0727 -0.067,-2.3888 3.0475,-0.0818 1.1364,0.15882 1.2373,-0.46741 2.4894,-0.22531 0.874,0.1875 0.961,-1.14967 0.9963,-0.17985 0.9259,0.26066 0.024,0.64647 1.9362,0.40373 0.9787,-0.0528 2.0025,-0.80871 1.6207,0.35855 1.0707,-0.23395 1.1301,0.99644 3.6145,1.60641 -1.3129,0.13501 1.0044,0.97846 -0.9884,2.11023 -1.2049,0.66475 1.2342,0.75395 0.052,0.84343 -0.8633,2.51409 -0.016,0.89583 0.4681,2.31676 -0.7477,0.66543 -0.364,-0.95178 -1.7739,-1.40951 1.2621,-1.81413 -1.0041,-0.97854 1.6135,-0.79975 0.7806,-0.8534 -2.3064,-2.51382 -0.418,-0.1889 -3.3199,0.17164 -0.2216,0.54733 -0.8048,0.20709 -2.2402,1.48229 -1.2401,1.68863 0.4818,1.80472 -1.6326,2.91897 -1.1685,3.24208 -1.7566,3.28718 -1.3352,-0.12633 -0.764,0.72764 -0.3489,1.36515 0.096,2.19996 0.5673,1.68822 -1.2786,4.31965 z"
     style="fill:#cc2f4a;stroke:#fffdfd;stroke-width:1;stroke-miterlimit:4;stroke-dasharray:none;stroke-opacity:1;fill-opacity:1" />
  <path
     style="fill:#cc2f4a;stroke:#fffdfd;stroke-width:1;stroke-miterlimit:4;stroke-dasharray:none;stroke-opacity:1;fill-opacity:1"
     d="m 658.81015,657.58655 1.6643,-1.11393 0.5603,0.52963 -0.2907,1.82338 -1.3536,0.38642 -0.5274,-0.33164 z"
     id="path59286" />
  <path
     style="fill:#cc2f4a;stroke:#fffdfd;stroke-width:1;stroke-miterlimit:4;stroke-dasharray:none;stroke-opacity:1;fill-opacity:1"
     d="m 486.92345,786.73241 1.3456,0.0611 v 0.38575 z"
     id="path59284" />
  <path
     style="fill:#cc2f4a;stroke:#fffdfd;stroke-width:1;stroke-miterlimit:4;stroke-dasharray:none;stroke-opacity:1;fill-opacity:1"
     d="m 782.23365,692.47463 0.8304,-0.71822 2.8635,-0.94361 0.9081,-1.22139 -0.4196,-1.40986 0.6558,-0.48528 1.3418,-3.53891 0.2411,-1.25315 1.1912,-2.59574 -0.8953,-0.44826 -0.01,-1.02764 0.9242,-0.12588 0.5345,-1.33864 -0.3268,1.94731 0.223,1.83195 -1.4535,3.00871 0.021,0.90084 -1.5543,4.02322 0.034,0.711 -3.0491,3.29647 0.3081,0.49395 -1.3778,3.34099 0.2203,0.61016 -1.2148,0.72756 -0.9842,-1.10444 0.083,-1.21064 0.4188,-0.58369 -0.096,-1.42816 0.6232,-0.68294 z"
     id="FL-28" />
  <g
     id="g59403"
     style="fill:#cc2f4a;fill-opacity:1;stroke:#fffdfd;stroke-opacity:1">
    <path
       id="path59268"
       d="m 153.35395,93.320126 0.3876,-5.60362 3.2483,-6.9335 2.2074,-1.67991 0.1895,-1.96652 0.5772,0.0244 0.2585,-0.79935 0.5574,0.1479 0.2042,-0.87117 -0.5156,-0.004 0.2042,-0.87117 1.2196,0.0427 0.2433,-3.11625 -0.4418,-0.0628 0.5433,-2.17334 2.05,0.0973 0.2516,-3.56515 -2.0502,-0.0973 -0.058,-4.44504 -0.5312,-2.71188 0.4905,-3.85277 -0.7464,-1.77779 0.033,-1.40988 -0.8936,-0.0627 0.118,-1.91239 -1.7368,-0.43879 -0.7923,-0.69109 0.8057,-0.59278 -0.3809,-0.43999 0.085,-1.33812 -0.3631,-0.95183 -0.8555,-0.70003 1.6709,0.0473 -0.2186,-1.44577 1.2903,-0.39547 0.4442,0.44905 0.1247,-1.20377 -1.0826,-0.0924 0.1383,-0.49483 -0.9263,-0.26066 -0.2243,-0.61061 1.3084,-0.90736 0.1032,-1.84996 2.4411,0.4754 -0.1976,-3.17885 1.0025,-4.61604 0.1254,-1.589771 -0.7137,-1.580181 -1.1399,-6.142021 0.2827,-3.75368 0.6705,-4.148792 0.1981,-0.03266 2.9439,0.158731 2.5019,0.09701 2.3757,0.08134 0.3881,-0.0031 5.4558,0.19602 0.2525,0.03387 1.9866,0.09053 1.2822,0.05728 0.062,0.0087 3.0903,0.05292 14.0748,0.390998 2.2595,-6.83e-4 1.1567,0.03275 0.8935,0.063 1.0931,0.02815 0.8509,-0.07117 5.3295,0.178057 2.8276,0.07992 1.7974,0.06208 3.0902,0.05292 4.562,0.133279 1.8708,0.0085 1.7975,0.06208 2.3226,0.0085 0.2528,0.03389 1.6082,0.0356 1.997,0.02637 3.4159,0.03493 3.994,0.05285 1.093,0.02815 2.3859,0.01729 2.6383,0.05321 2.1333,-0.01864 3.7946,0.08882 1.6182,-0.02721 1.3456,0.06117 0.904,-5.45e-4 1.6184,-0.02719 3.8577,0.0974 4.047,0.124495 1.0296,0.02099 0.9571,0.06928 1.6082,0.03561 0.2628,-0.02871 1.9867,0.09052 7.127,0.24044 3.994,0.0526 -0.077,1.661034 -0.3947,0.844029 0.1307,0.790094 1.7694,0.637033 0.6459,0.799184 0.036,0.969573 -0.481,2.182169 1.2037,0.942498 0.194,0.799147 1.3244,1.795758 1.4123,2.451034 0.6537,0.35009 -0.034,0.57396 -0.5005,0.70047 0.6584,1.12227 -0.3432,0.52994 0.2168,1.0595 0.7416,1.00537 -0.1657,0.61949 -0.932,0.57473 -0.1823,1.90326 0.8726,1.79575 -0.1657,0.61951 0.025,0.64662 0.3936,0.7631 0.6584,1.12221 0.024,0.26059 -0.3087,1.1137 -0.01,0.062 0.4868,0.58359 0.3853,1.21229 1.4189,0.008 0.2651,0.35917 0.6033,0.66456 0.4384,1.28397 0.5176,0.39478 0.782,0.75403 0.5977,1.49955 0.8301,0.0588 2.1761,0.11703 1.4611,0.14786 3.3856,0.2225 4.2058,0.34009 2.5547,0.17179 2.2292,0.18684 4.0898,0.2605 2.1657,0.18188 3.1228,0.2504 2.2928,0.19254 5.8041,0.43765 2.355,0.21035 3.1762,0.31912 1.0191,0.0859 5.6349,0.28633 4.1528,0.26934 0.2628,-0.0287 1.9765,0.15359 1.5245,0.15455 1.1463,0.0978 5.3622,0.37503 0.1886,0.0273 3.1963,0.19422 6.1929,0.42882 3.764,0.27746 3.1964,0.19422 2.0931,0.23068 9,0.63594 3.1229,0.2504 7.8538,0.53805 3.5749,0.24898 0.062,0.008 2.5547,0.17179 0.5674,0.0865 1.8509,0.13146 2.4183,0.21631 1.3457,0.0611 2.2928,0.19255 6.6346,0.49153 1.4092,0.0676 2.1658,0.18188 8.0434,0.56253 2.6074,0.24469 7.9272,0.48303 2.0298,0.22367 3.2486,0.27199 2.1127,0.11053 2.6177,0.18082 3.0595,0.24444 1.9129,0.14753 1.6513,0.16839 3.0594,0.24444 0.2628,-0.0287 1.6961,0.69072 2.1033,0.16715 0.5874,1.56222 -0.077,0.50343 0.7564,1.71489 0.3124,1.26607 -0.6794,0.6109 0.093,1.42786 0.5748,1.23918 -0.5107,0.76348 1.428,1.55303 0.2312,1.76908 0.4385,1.284 -0.692,0.28744 0.5827,0.79025 -0.4495,3.98714 1.8324,0.64625 0.8601,1.47242 -0.5229,0.44033 0.5073,0.45757 -0.4852,1.40996 0.3429,1.07741 -0.3663,0.26944 0.5525,0.9785 0.5859,-0.43119 0.3734,0.88903 1.2172,-0.34167 1.6128,0.80762 0.8591,3.07988 -0.7244,0.0891 -1.528,1.06915 -0.2215,2.15503 0.3607,0.56574 -0.8689,0.58385 -1.1156,-0.28696 -0.4376,0.70947 0.4939,1.741954 -0.6672,0.93389 0.3754,1.27505 -0.3536,0.59281 -1.571,0.93447 -0.5303,0.88934 0.1003,0.97874 -0.9448,1.85917 -0.022,0.96089 -2.7747,-0.008 -0.022,0.96121 -1.1156,-0.28697 -0.6186,0.23346 -0.1001,2.62221 -0.8428,3.22402 -0.2327,5.04685 -0.1479,0.9435 -0.055,3.14301 -5.4759,-0.0707 -0.9443,0.25165 -1.6414,-0.22832 -0.5797,15.60744 -0.366,12.67993 -0.079,0.88906 1.9338,0.0173 -0.194,8.01026 3.5623,-0.073 -0.1563,5.37918 -1.3543,1.994 -0.5352,0.11596 -1.0495,2.10145 0.2675,0.74529 -0.4499,0.38622 0.247,0.87117 -0.3065,1.49973 -0.4775,0.96096 -0.046,1.47244 -1.5011,2.10173 0.1535,1.05051 -1.0706,0.23371 -2.6225,-0.95129 -1.2047,0.66507 -1.6513,-0.16837 -1.1407,-0.93348 -1.26,0.20694 -1.1281,-0.61034 -2.6226,-0.95126 0.015,-1.28401 -0.9457,-1.74195 -1.7446,0.01 -0.3079,-0.49392 -3.1297,-1.40906 -1.1655,-1.58019 -0.6737,-0.22422 -0.5388,-2.26281 -0.737,-0.23333 -1.1945,0.60191 0.581,-1.20358 -1.0618,-1.8226 0.8137,-1.042 -0.7037,-1.64317 0.2591,-1.63487 -0.7779,0.0224 -0.08,-1.10455 -0.7167,-0.35929 -0.2774,-0.68226 -1.4234,-0.78088 -0.098,-0.59248 -0.9153,-1.93037 -0.3124,-1.26611 -0.4646,-0.32274 -0.07,-1.16749 -1.6353,-1.06809 -1.8924,-1.87641 -0.5478,-0.20627 -0.3854,-1.21226 -0.83,-0.0592 -0.8556,-0.70007 -3.2154,-1.67836 -1.1306,-0.99648 -0.7316,-1.06828 -0.6919,0.28764 -0.9918,-0.65537 -0.4993,-0.90698 -2.2766,-1.09465 -2.0071,0.0363 -1.2037,-0.94239 -0.9872,0.11676 -1.703,-1.8495 -1.8044,-1.22062 -1.1688,-0.35819 -4.0912,-2.25278 -0.055,-0.45804 -1.1895,-0.22911 -0.8353,-0.82578 0.1876,-0.3593 -2.8842,-2.53145 -0.8202,-0.12045 -0.5725,-0.85286 -1.019,-0.0859 -0.6232,-0.53851 0.3311,-0.85328 -0.3382,-0.30548 -0.7528,0.66477 -0.5701,-0.46718 0.3101,-0.72758 -0.7822,-0.75404 -0.7779,0.0224 -1.0449,-0.72722 -1.6793,0.40455 -0.896,-0.44836 -1.5123,0.17126 -2.1795,1.10522 -1.1262,-0.22239 -1.2701,0.26982 -0.8892,0.70965 -0.6659,-0.67342 -3.96,2.13836 -1.1236,0.16184 -1.1895,-0.22913 -0.5603,-0.52953 1.1674,-1.63462 -2.0547,-0.8704 -0.8093,-1.78672 -0.7426,0.6018 0.4183,1.40969 0.6153,0.98752 -0.5757,0.3683 -1.6184,0.0271 -1.9027,-0.2117 -0.8882,-0.89772 -0.1637,-0.98786 -1.5576,-0.34997 -1.1168,1.32028 -0.1799,1.13189 0.2841,1.84071 -0.7302,0.92517 -2.184,0.33294 -2.1061,1.05123 -1.8313,1.34761 -0.022,0.9613 -1.1969,0.21594 0.1072,0.52969 -0.8966,1.15876 -0.4666,-0.70928 -1.0334,1.20353 0.5014,1.29293 -0.1445,1.26571 0.9942,1.04149 0.8259,-0.71868 0.3855,1.21231 -0.1657,0.61961 -1.9765,-0.15363 -1.3176,-0.63715 -1.2619,-0.18283 -1.0019,-0.59269 -1.4944,-0.3411 -1.0603,0.17095 -1.5926,-0.93345 -0.3662,0.26976 0.07,1.16751 0.4011,0.31418 -1.0032,1.01514 0.3099,0.8801 1.2822,0.0573 0.9419,-0.63782 1.3706,0.70952 2.459,-0.0363 0.9411,0.9699 1.1868,-0.15323 2.5415,1.45409 0.2132,2.28079 -0.2751,1.31118 -0.9781,1.66151 -3.9061,0.60281 -2.4862,-0.99623 -1.9562,-0.27987 -1.8044,-1.22075 -0.7945,-1.07752 -0.247,-0.8712 -2.0149,0.48555 -2.344,1.7249 -0.2447,-0.4849 -1.6938,-0.30543 -2.76,0.70126 -3.4449,2.1472 -3.8361,1.77012 -1.066,1.00623 -2.22,1.35655 -2.1141,1.50017 -0.435,1.09583 -1.2321,-0.36722 -0.6569,0.87127 -1.8809,0.0546 -1.0583,0.55696 -2.8464,2.03928 -0.7451,0.21573 -2.3112,1.92223 -0.6407,-0.0306 -3.2478,1.72511 -3.5205,1.81497 -1.3962,0.25188 -3.3538,1.58154 -1.5077,0.94344 -0.7383,1.37403 -0.5057,-0.0678 -0.9232,-1.48137 0.7706,-1.17672 1.0997,-2.41596 0.6591,-0.48508 1.0007,-1.40113 0.1183,-1.91256 -1.1664,0.0263 -0.4216,1.41899 -1.9662,-0.21738 -1.2071,0.27883 -1.403,2.6944 -1.2427,1.3024 -0.8688,0.58381 -1.8989,0.56661 -0.5693,1.52679 -0.8891,0.71004 -3.9544,1.30322 -1.232,-0.36726 -1.1642,0.41339 -0.4339,-0.51188 -3.3472,-0.8612 -3.0902,-0.053 -2.1839,0.33294 -5.4466,1.34847 -0.5128,0.3773 -1.1664,0.026 -1.8763,0.82675 -1.4798,0.36857 -1.2428,1.30236 -1.1767,0.0899 -1.9058,-0.59216 -1.8204,-0.32079 -2.3025,-0.13213 -2.1109,0.27897 -1.9191,0.69199 -1.7073,0.97928 -1.3954,-1.35571 -1.0089,-1.75096 -1.0788,-2.91817 -1.0711,-3.3672 -0.4657,-2.31663 -0.8052,-4.61551 -0.2732,-3.51111 0.8607,-3.73591 1.3567,-1.60774 1.3207,-0.58418 -1.3746,2.1197 -0.1444,1.26573 -1.216,2.33516 0.2921,1.39173 -0.3954,2.06582 0.8716,3.40314 -0.331,0.85319 0.7395,0.61958 0.5715,2.46052 -0.046,1.47239 1.0134,2.52318 0.7619,0.87982 0.2593,1.19436 0.55,0.59271 -0.1149,0.75516 0.9894,0.26924 2.601,-0.91679 0.7903,0.30472 1.0357,-0.81742 0.2993,-2.27221 0.7108,-2.40686 0.022,-3.34064 0.7814,-4.84027 -0.1331,-1.17647 -0.8556,-0.70016 -0.2896,-1.00581 0.065,-1.21254 -1.0394,-1.56229 -0.7581,-0.10096 -1.0495,-1.49934 -0.7155,-2.35443 -1.3088,-2.69367 -2.0762,-2.73826 -2.0413,-2.15466 -1.5622,-1.12211 -3.6019,-1.28317 -2.8069,-0.20921 -2.8064,-1.81322 -1.5667,-1.89425 -1.2207,-2.03818 -0.8735,-0.18744 -0.8353,-0.82598 -4.1892,-4.83829 -2.2159,-1.47222 -6.8219,-3.73377 -1.7188,-0.95135 -2.9574,-2.47778 -2.0841,-2.2893 -2.5686,-2.48665 -3.6111,-2.82766 -6.8492,-4.76645 -4.5149,-2.82745 -2.6046,-1.46306 -5.3557,-2.81823 -9.2428,-4.334724 z"
       style="fill:#cc2f4a;fill-opacity:1;stroke:#fffdfd;stroke-width:1;stroke-miterlimit:4;stroke-dasharray:none;stroke-opacity:1" />
    <path
       id="path58634"
       d="m 317.75989,159.71095 -2.31055,2.53906 h -2.04883 l -1.90039,0.91992 -1.33008,-0.58008 1.60938,0.88086 3.75,-1.03125 4.33984,-2 z"
       style="fill:#cc2f4a;fill-opacity:1;stroke-width:1;stroke-miterlimit:4;stroke-dasharray:none;stroke:#fffdfd;stroke-opacity:1"
       inkscape:connector-curvature="0" />
    <path
       id="path58632"
       d="m 299.17981,171.83009 -1.84961,0.51953 -0.92969,2.25977 -5.30078,1.30078 -0.87891,-0.13086 -4.53125,2.78125 -2.33007,0.40039 -2.43946,2.6289 -3.51953,1.58985 -3.50977,0.56054 -1.32031,0.75 -4.38086,-1.65039 -2.91015,-2.09961 0.16992,0.61915 5.1914,4.25 9.41016,-3.00977 7.66992,-4.41016 3.2793,-1.41992 5.80078,-1.88867 3.62891,-2.10156 z"
       style="fill:#cc2f4a;fill-opacity:1;stroke-width:1;stroke-miterlimit:4;stroke-dasharray:none;stroke:#fffdfd;stroke-opacity:1"
       inkscape:connector-curvature="0" />
    <path
       id="path58630"
       d="m 263.67981,173.1797 -4.45899,0.9707 -4.77148,-0.49023 -2.16016,0.30078 3.65039,1.77929 3.14063,2.25 1.60937,1.68946 2.15039,0.54101 2.50977,-0.30078 1.84961,-4.99023 -1.38867,-1.23047 z"
       style="fill:#cc2f4a;fill-opacity:1;stroke-width:1;stroke-miterlimit:4;stroke-dasharray:none;stroke:#fffdfd;stroke-opacity:1"
       inkscape:connector-curvature="0" />
  </g>
  <path
     inkscape:connector-curvature="0"
     style="fill:#e2e279;fill-opacity:1"
     d="m 785.8009,691.25978 -3.60156,1.38085 -0.92969,4.25977 1.89063,0.45899 z"
     id="path58616" />
  <g
     id="g59411"
     style="fill:#cc2f4a;fill-opacity:1;stroke:#fffdfd;stroke-opacity:1">
    <path
       id="path59374"
       d="m 773.64165,675.69548 -0.6463,0.80838 0.06,1.23025 -0.5512,1.01489 0.4138,0.6374 -0.7959,0.52993 0.2668,0.74503 -0.3434,0.5299 0.014,2.31682 0.6138,0.60175 -0.2235,1.06141 0.7401,0.61972 -0.016,0.8981 1.118,0.67293 -0.5199,0.82634 -0.01,2.44243 -0.2503,1.57199 0.8882,0.89772 1.6512,0.16844 -0.5368,1.72414 -0.9166,1.28454 -0.8909,0.70975 -0.528,1.2753 -1.2617,1.81419 0.037,0.96981 -0.8197,0.26929 -0.2347,-0.54791 -1.0627,-0.2156 -1.0583,0.55696 -0.7309,2.53261 0.6909,1.31987 -0.1333,0.49523 -1.4843,-0.40251 -1.377,1.73342 -0.2274,1.83228 0.3878,1.5983 -0.3085,1.11376 -1.5528,0.42264 0.027,1.03254 -0.7993,1.75136 0.4507,1.60722 1.6861,0.75393 1.1133,-0.0991 0.2271,-0.61083 1.0177,-0.30558 0.8837,0.12545 -0.1315,-0.79024 2.3102,-0.315 0.862,-1.74242 0.6154,-0.6198 0.5774,-1.58985 0.2443,-2.73003 -0.9382,-0.19435 -0.4276,-1.34686 -1.8205,-0.32079 -0.3934,-0.76302 0.7994,0.24267 1.9598,-0.94345 0.8038,0.62849 0.7657,-0.34136 3.8901,-3.30574 0.031,-1.02423 1.0814,-0.68229 0.7336,-2.14658 0.7425,-0.6016 1.0086,0.15 -0.2782,0.53916 0.8519,0.69961 -0.8214,1.8768 -1.0579,0.55688 -0.9859,1.72472 0.017,0.70979 -0.9556,1.92208 -2.292,3.40406 -0.8526,2.06529 -0.7424,0.60171 -0.8832,1.86791 -0.5038,0.31463 -0.9851,2.49654 -0.8778,0.64693 -0.1354,0.88072 -1.6294,1.6976 1.9443,-0.0457 -0.8924,1.93101 -1.2902,0.39539 -0.8368,2.38893 -0.8863,1.09589 -1.172,0.86228 -0.4766,0.96102 -1.5631,0.48508 -0.3961,0.45828 -0.7293,-0.68228 -0.5733,0.7547 -0.1684,1.00512 -1.3669,1.67069 -2.0655,0.79987 -1.2023,1.05105 -1.4074,1.92203 -0.9726,0.82654 0.4158,1.02344 -0.9905,1.33822 -1.2575,0.5932 -0.7178,1.24834 -1.7299,0.71909 -0.4573,0.83531 -1.3466,1.545 -0.4569,0.8354 -1.0457,0.88011 -0.897,1.1588 -3.2524,0.95284 -1.0457,0.88023 -2.1623,2.20073 -0.8036,0.97905 -2.6572,2.06617 -0.3303,-0.75415 0.9747,-0.4402 0.248,-0.73655 1.0706,-0.23392 2.0993,-2.20966 -0.2516,-1.64337 1.169,0.35816 0.1192,-1.14058 1.2015,0.55602 0.6267,-0.68264 -0.54,-0.65552 0.6773,-0.997 0.9184,0.70913 0.4904,-0.63754 0.4341,0.51177 0.9039,-4.6e-4 1.3284,-1.03311 1.2313,-3.2332 0.5229,-0.44022 -0.1456,-1.4995 1.8887,-0.50338 1.232,0.3673 0.2516,-1.57185 0.4622,-0.0633 0.9804,-1.27547 0.4776,-0.96096 0.8484,-0.45813 3.1428,-3.47617 0.1974,-1.64362 0.3303,0.75427 1.4018,-1.08703 1.1571,-1.5719 -0.078,-0.71818 -0.941,-0.96962 -2.1403,-1.1398 0.435,-1.0956 -0.4893,-0.96978 -0.06,-1.23018 1.1423,-2.2813 0.6085,-0.1704 0.4115,-1.35632 -0.5157,-0.005 -2.0738,-2.35225 -1.5881,-0.16066 -0.8259,0.71878 -1.2848,-0.4397 0.3653,1.33795 -0.8429,-0.37686 -1.8317,-2.25344 -0.5351,0.11594 -0.5937,0.88041 -1.3435,0.32378 0.6603,1.50847 -0.772,-0.81662 -0.7372,-0.23338 0.1031,-0.62867 -1.6385,0.15328 0.3982,1.53538 -1.0887,0.74559 -0.9513,-0.90672 0.7904,0.30472 0.8137,-1.04202 -0.5602,-0.52973 -1.2823,-0.0573 -0.5532,0.62866 0.141,0.72721 -0.9443,0.25173 -0.435,1.09582 -0.9341,0.18892 0.065,-1.5985 -0.621,-0.15308 -1.8436,1.0243 -0.3909,-0.37702 -1.1191,0.93426 -1.5144,-0.2174 -0.2885,0.98777 -0.5772,-0.0249 -0.4142,0.96987 0.6716,-0.1618 1.5045,0.27785 -1.2365,2.46082 0.4261,0.96077 -1.1416,0.67384 -0.9795,-0.33063 0.9804,-1.27546 0.7021,-0.35052 0.2585,-0.79928 -0.4869,-0.58356 -2.5504,0.60256 0.2517,-1.18593 -2.2199,1.35661 0.016,1.09546 -0.8791,0.64682 0.1637,0.9877 -0.6909,-1.31986 -0.8329,-0.43959 -0.9647,0.37749 0.4572,-0.83527 -0.2875,-0.6197 -0.8532,-0.31384 0.2367,0.93388 -1.7693,-0.63702 -0.1421,0.88013 1.0775,0.92445 0.7449,-0.21572 1.065,0.60166 -2.2878,0.57547 -1.3672,-1.93039 -0.9589,-0.45753 -0.9975,0.17979 0.3124,1.26608 -0.2667,1.24826 -0.7549,0.2785 0.6543,-1.25738 -0.4812,-1.41861 -0.7393,-0.61946 -1.2069,0.27873 -0.5616,1.07784 -0.1571,1.39223 -0.2065,-1.12249 0.9814,-2.88284 -0.5399,-0.65542 -1.1789,-0.29609 -0.6819,0.22462 0.5774,1.62524 -1.8436,1.02433 -0.807,-1.40072 -1.7164,-0.565 -2.1737,0.27005 -1.3739,0.51214 -0.5737,0.75468 -1.0399,0.0441 -0.5758,0.36821 -0.2279,0.99647 0.3304,0.75411 -0.1485,0.94336 -1.7771,-0.189 -3.0528,0.91674 -0.2376,0.6736 -0.4667,-0.70932 -0.8835,-0.12547 -0.7853,0.46717 -0.8002,-0.24272 -3.1036,1.23111 -2.6204,-0.56398 -3.1308,0.19849 -1.7523,0.45843 -1.9698,1.00637 -0.7481,-0.16423 -0.7767,-1.58918 -1.6073,-1.64291 -1.741,-1.21187 -1.5246,-0.1545 -0.1446,-3.10703 -1.4573,-2.97201 -1.8597,-1.67878 0.1311,-2.81073 0.3307,-0.85331 0.1335,-2.03859 0.6166,-0.61961 -0.1331,-1.17647 0.3896,-1.61648 0.7831,-0.85344 0.3699,-1.49075 -0.3202,-0.81698 0.4142,-0.96993 0.9399,-1.02384 0.6817,-0.22475 1.4008,0.52027 0.4506,-1.99374 -0.8553,-0.70006 0.2479,-0.73646 -0.03,-1.41888 -2.0297,-0.22354 -1.0447,-0.72701 0.1,-2.6222 -0.2187,-1.44574 -0.6135,-0.60159 0.022,-0.96109 -1.1046,-1.95726 -0.098,-2.20017 -2.3724,-1.30155 -2.278,-3.08847 -0.06,-1.23023 0.786,-2.07471 -0.6301,-1.69714 -1.8147,-1.1577 -0.9005,-1.22101 0.097,-0.56537 -0.7191,-0.74521 -0.3982,-1.53542 0.1315,-1.65283 -3.3371,-0.92392 -0.3856,-1.21207 0.1988,-1.64357 -1.0978,-0.79884 -0.027,-1.03251 -0.7045,-0.0344 0.053,-1.14965 0.4905,-0.63743 -0.7698,-0.43097 0.5202,-0.82643 -0.363,-0.95171 -1.4335,-0.71836 -0.9209,-1.09552 -2.0546,-0.87036 -0.55,-0.59254 -2.2057,-1.53491 -0.5241,-1.55331 -1.1261,-0.22237 -1.3175,-0.63718 0.2884,-0.98781 -0.2232,-2.21802 -0.8658,-0.63735 -0.6817,0.22463 -2.1684,-0.56515 -0.984,-1.10443 -1.9587,-0.66427 -1.838,0.18902 -1.3176,-0.63719 13.2623,-0.1744 5.1176,-0.10953 19.9881,-0.24812 2.7116,-9.2e-4 13.2823,-0.30014 12.0002,-0.35373 4.8747,5.00049 0.4319,0.12481 16.6454,-0.33698 3.027,0.0442 25.7773,-0.51914 -0.2436,-2.09238 0.6165,-0.61963 3.2694,0.14293 -0.085,-1.8768 1.7445,-0.01 0.075,1.93957 1.7649,-0.13506 0.067,2.38872 -1.7547,0.0725 0.075,1.93976 -0.6425,1.58062 -1.2292,0.0176 0.1547,3.0442 -0.6604,2.09259 0.049,2.90052 0.432,3.72659 0.6786,0.99656 0.2277,2.99026 0.7721,0.81685 0.4387,1.28401 -0.7097,0.79928 0.076,0.71799 1.1364,0.15882 0.2821,1.45471 2.2259,1.40927 0.8407,-0.007 0.805,1.01459 z"
       style="fill:#cc2f4a;stroke:#fffdfd;stroke-width:1;stroke-miterlimit:4;stroke-dasharray:none;stroke-opacity:1;fill-opacity:1" />
    <path
       id="path58614"
       d="m 721.68957,760.78907 -2.6289,2.79102 -1.69141,0.73047 2.64063,-0.94141 3.27929,0.0117 z"
       style="fill:#cc2f4a;fill-opacity:1;stroke:#fffdfd;stroke-opacity:1"
       inkscape:connector-curvature="0" />
    <path
       id="path58612"
       d="m 652.0509,763.6797 -3.48047,1.75 -2.5,0.76953 -1.92969,4.38086 -5.00976,-0.49024 -1.06055,0.49024 -1.4707,2.36914 -9.62891,4.49023 -3.18164,2.63086 -5.80859,2.85938 -1.21094,2.57031 4.07031,1.81055 0.69922,1.30859 -3.38867,3.18164 -1.49023,-0.6914 -3.0293,1.24023 -2.40039,1.56055 0.36914,2.08007 2.91992,-0.16015 5.57031,-1.2207 5.5,-0.22852 2.21094,-1.76172 2.3086,-0.20898 4.37109,-1.35938 4.41992,-2.14062 0.53906,-0.68946 5.31055,-1.95117 0.51953,-3.46875 2.65039,0.78906 3.83985,-0.68945 4.46093,1.29883 1.2793,2.56055 5.28906,-1.78907 5.45117,-2.38086 -1.31054,-1.09961 -1.20899,-4.57031 -2.4414,-0.51953 -2.70899,-4.23047 0.0703,-3.23047 -0.70117,-1.17968 -3.69922,-1.61915 -1.60937,1.7793 -3.43164,1.34961 -0.71875,-1.79883 2,-2.64062 z"
       style="fill:#cc2f4a;fill-opacity:1;stroke:#fffdfd;stroke-opacity:1"
       inkscape:connector-curvature="0" />
    <path
       id="path58610"
       d="m 707.51965,768.85939 -2.7793,0.48046 -3.33007,2.40039 -3.46094,1.2793 -1.17969,-1.10937 -1.51953,0.64062 -2.88086,2.54883 h -1.45898 l -3.79102,1.16016 1.85156,2.2207 2.8086,-0.41992 1.66992,-2.78125 3.58984,-1.50977 1.17188,1.24024 3.43945,-1.98047 z"
       style="fill:#cc2f4a;fill-opacity:1;stroke:#fffdfd;stroke-opacity:1"
       inkscape:connector-curvature="0" />
    <path
       id="path58608"
       d="m 672.28918,780.23048 -2.27929,2.33008 3.95117,-1.66016 z"
       style="fill:#cc2f4a;fill-opacity:1;stroke:#fffdfd;stroke-opacity:1"
       inkscape:connector-curvature="0" />
    <path
       id="Orange"
       d="m 577.25012,789.78907 -2.25977,0.86133 2.58008,0.99023 0.41992,1.44922 2.03907,-0.58984 -0.22852,-1.25977 z"
       style="fill:#cc2f4a;fill-opacity:1;stroke:#fffdfd;stroke-opacity:1"
       inkscape:connector-curvature="0" />
  </g>
</svg>
